<?xml version="1.0" encoding="utf-8" standalone="no"?>
<!DOCTYPE svg PUBLIC "-//W3C//DTD SVG 1.1//EN"
  "http://www.w3.org/Graphics/SVG/1.1/DTD/svg11.dtd">
<svg xmlns:xlink="http://www.w3.org/1999/xlink" width="565.72125pt" height="348.671625pt" viewBox="0 0 565.72125 348.671625" xmlns="http://www.w3.org/2000/svg" version="1.1">
 <metadata>
  <rdf:RDF xmlns:dc="http://purl.org/dc/elements/1.1/" xmlns:cc="http://creativecommons.org/ns#" xmlns:rdf="http://www.w3.org/1999/02/22-rdf-syntax-ns#">
   <cc:Work>
    <dc:type rdf:resource="http://purl.org/dc/dcmitype/StillImage"/>
    <dc:date>2026-03-30T15:17:37.733138</dc:date>
    <dc:format>image/svg+xml</dc:format>
    <dc:creator>
     <cc:Agent>
      <dc:title>Matplotlib v3.10.8, https://matplotlib.org/</dc:title>
     </cc:Agent>
    </dc:creator>
   </cc:Work>
  </rdf:RDF>
 </metadata>
 <defs>
  <style type="text/css">*{stroke-linejoin: round; stroke-linecap: butt}</style>
 </defs>
 <g id="figure_1">
  <g id="patch_1">
   <path d="M 0 348.671625 
L 565.72125 348.671625 
L 565.72125 0 
L 0 0 
z
" style="fill: #ffffff"/>
  </g>
  <g id="axes_1">
   <g id="patch_2">
    <path d="M 61.81343 315.648 
L 196.164148 315.648 
L 196.164148 81.6 
L 61.81343 81.6 
z
" style="fill: #ffffff"/>
   </g>
   <g id="line2d_1">
    <path d="M 61.81343 198.624 
L 196.164148 198.624 
" clip-path="url(#p77d5861799)" style="fill: none; stroke: #e9edf1; stroke-linecap: square"/>
   </g>
   <g id="line2d_2">
    <path d="M 128.988675 315.648 
L 128.988675 81.6 
" clip-path="url(#p77d5861799)" style="fill: none; stroke: #e9edf1; stroke-linecap: square"/>
   </g>
   <g id="patch_3">
    <path d="M 187.58705 198.624 
L 187.52635 200.517477 
L 187.4409 202.410378 
L 187.330789 204.302126 
L 187.19612 206.192143 
L 187.037014 208.079856 
L 186.853602 209.964688 
L 186.646033 211.846065 
L 186.414468 213.723415 
L 186.159083 215.596166 
L 185.880067 217.463747 
L 185.577621 219.325589 
L 185.251963 221.181125 
L 184.90332 223.029789 
L 184.531935 224.87102 
L 184.13806 226.704256 
L 183.721961 228.528938 
L 183.283916 230.34451 
L 182.824214 232.150421 
L 182.343153 233.946119 
L 181.841046 235.731057 
L 181.318212 237.504692 
L 180.774982 239.266484 
L 180.211698 241.015896 
L 179.628709 242.752395 
L 179.026374 244.475451 
L 178.40506 246.184541 
L 177.765143 247.879144 
L 177.107005 249.558743 
L 176.431037 251.222827 
L 175.737636 252.870888 
L 175.027207 254.502426 
L 174.300159 256.116942 
L 173.556908 257.713946 
L 172.797875 259.29295 
L 172.023486 260.853474 
L 171.234171 262.395042 
L 170.430366 263.917185 
L 169.612507 265.419439 
L 168.781036 266.901346 
L 167.936398 268.362455 
L 167.07904 269.802322 
L 166.20941 271.220507 
L 165.327959 272.616578 
L 164.435139 273.99011 
L 163.531403 275.340685 
L 162.617203 276.667892 
L 161.692995 277.971325 
L 160.75923 279.250589 
L 159.816363 280.505293 
L 158.864844 281.735055 
L 157.905126 282.9395 
L 156.937656 284.118263 
L 155.962884 285.270983 
L 154.981253 286.397309 
L 153.993207 287.496899 
L 152.999186 288.569417 
L 151.999627 289.614537 
L 150.994963 290.631941 
L 149.985625 291.621318 
L 148.972038 292.582367 
L 147.954626 293.514795 
L 146.933804 294.418319 
L 145.909988 295.292663 
L 144.883584 296.137561 
L 143.854997 296.952755 
L 142.824624 297.737997 
L 141.792858 298.493048 
L 140.760087 299.217678 
L 139.726691 299.911666 
L 138.693047 300.574801 
L 137.659524 301.206881 
L 136.626485 301.807713 
L 135.594287 302.377115 
L 134.563282 302.914912 
L 133.533813 303.420941 
L 132.506218 303.895048 
L 131.480827 304.337088 
L 130.457966 304.746927 
L 129.43795 305.124441 
L 128.421092 305.469513 
L 127.407693 305.782038 
L 126.398052 306.061923 
L 125.392456 306.309081 
L 124.39119 306.523437 
L 123.394528 306.704925 
L 122.402738 306.853491 
L 121.416084 306.96909 
L 120.434817 307.051685 
L 119.459188 307.101253 
L 118.489435 307.117777 
L 117.525793 307.101253 
L 116.568488 307.051685 
L 115.617741 306.96909 
L 114.673763 306.853491 
L 113.736763 306.704925 
L 112.80694 306.523437 
L 111.884486 306.309081 
L 110.96959 306.061923 
L 110.06243 305.782038 
L 109.163182 305.469513 
L 108.272012 305.124441 
L 107.389083 304.746927 
L 106.514551 304.337088 
L 105.648565 303.895048 
L 104.791269 303.420941 
L 103.942802 302.914912 
L 103.103296 302.377115 
L 102.272878 301.807713 
L 101.451671 301.206881 
L 100.639791 300.574801 
L 99.837349 299.911666 
L 99.044454 299.217678 
L 98.261205 298.493048 
L 97.487702 297.737997 
L 96.724035 296.952755 
L 95.970294 296.137561 
L 95.226563 295.292663 
L 94.492921 294.418319 
L 93.769444 293.514795 
L 93.056204 292.582367 
L 92.353269 291.621318 
L 91.660705 290.631941 
L 90.978571 289.614537 
L 90.306927 288.569417 
L 89.645826 287.496899 
L 88.995321 286.397309 
L 88.35546 285.270983 
L 87.726289 284.118263 
L 87.107851 282.9395 
L 86.500188 281.735055 
L 85.903337 280.505293 
L 85.317336 279.250589 
L 84.742218 277.971325 
L 84.178015 276.667892 
L 83.624758 275.340685 
L 83.082476 273.99011 
L 82.551195 272.616578 
L 82.03094 271.220507 
L 81.521737 269.802322 
L 81.023608 268.362455 
L 80.536574 266.901346 
L 80.060656 265.419439 
L 79.595875 263.917185 
L 79.142248 262.395042 
L 78.699795 260.853474 
L 78.268533 259.29295 
L 77.848478 257.713946 
L 77.439649 256.116942 
L 77.042061 254.502426 
L 76.65573 252.870888 
L 76.280672 251.222827 
L 75.916904 249.558743 
L 75.56444 247.879144 
L 75.223298 246.184541 
L 74.893493 244.475451 
L 74.575041 242.752395 
L 74.267961 241.015896 
L 73.972267 239.266484 
L 73.687979 237.504692 
L 73.415113 235.731057 
L 73.153689 233.946119 
L 72.903725 232.150421 
L 72.665241 230.34451 
L 72.438258 228.528938 
L 72.222797 226.704256 
L 72.018879 224.87102 
L 71.826527 223.029789 
L 71.645764 221.181125 
L 71.476615 219.325589 
L 71.319105 217.463747 
L 71.17326 215.596166 
L 71.039107 213.723415 
L 70.916672 211.846065 
L 70.805987 209.964688 
L 70.707078 208.079856 
L 70.619978 206.192143 
L 70.544718 204.302126 
L 70.481329 202.410378 
L 70.429845 200.517477 
L 70.390301 198.624 
L 70.36273 196.730523 
L 70.347169 194.837622 
L 70.343654 192.945874 
L 70.352222 191.055857 
L 70.372911 189.168144 
L 70.405761 187.283312 
L 70.450809 185.401935 
L 70.508097 183.524585 
L 70.577664 181.651834 
L 70.659552 179.784253 
L 70.753802 177.922411 
L 70.860456 176.066875 
L 70.979555 174.218211 
L 71.111142 172.37698 
L 71.25526 170.543744 
L 71.41195 168.719062 
L 71.581256 166.90349 
L 71.76322 165.097579 
L 71.957884 163.301881 
L 72.165291 161.516943 
L 72.385481 159.743308 
L 72.618496 157.981516 
L 72.864376 156.232104 
L 73.123162 154.495605 
L 73.394893 152.772549 
L 73.679607 151.063459 
L 73.977341 149.368856 
L 74.288131 147.689257 
L 74.612012 146.025173 
L 74.949018 144.377112 
L 75.299181 142.745574 
L 75.66253 141.131058 
L 76.039094 139.534054 
L 76.4289 137.95505 
L 76.831973 136.394526 
L 77.248334 134.852958 
L 77.678004 133.330815 
L 78.120999 131.828561 
L 78.577335 130.346654 
L 79.047024 128.885545 
L 79.530075 127.445678 
L 80.026493 126.027493 
L 80.536281 124.631422 
L 81.059439 123.25789 
L 81.595961 121.907315 
L 82.145839 120.580108 
L 82.709061 119.276675 
L 83.285612 117.997411 
L 83.875469 116.742707 
L 84.478609 115.512945 
L 85.095002 114.3085 
L 85.724612 113.129737 
L 86.367402 111.977017 
L 87.023326 110.850691 
L 87.692335 109.751101 
L 88.374374 108.678583 
L 89.069382 107.633463 
L 89.777292 106.616059 
L 90.498033 105.626682 
L 91.231525 104.665633 
L 91.977684 103.733205 
L 92.736419 102.829681 
L 93.507633 101.955337 
L 94.29122 101.110439 
L 95.08707 100.295245 
L 95.895066 99.510003 
L 96.715081 98.754952 
L 97.546983 98.030322 
L 98.390632 97.336334 
L 99.245881 96.673199 
L 100.112576 96.041119 
L 100.990553 95.440287 
L 101.879642 94.870885 
L 102.779665 94.333088 
L 103.690435 93.827059 
L 104.611757 93.352952 
L 105.543429 92.910912 
L 106.48524 92.501073 
L 107.43697 92.123559 
L 108.398392 91.778487 
L 109.369269 91.465962 
L 110.349357 91.186077 
L 111.338401 90.938919 
L 112.336141 90.724563 
L 113.342306 90.543075 
L 114.356616 90.394509 
L 115.378785 90.27891 
L 116.408516 90.196315 
L 117.445503 90.146747 
L 118.489435 90.130223 
L 119.539989 90.146747 
L 120.596835 90.196315 
L 121.659634 90.27891 
L 122.72804 90.394509 
L 123.801698 90.543075 
L 124.880244 90.724563 
L 125.963307 90.938919 
L 127.050509 91.186077 
L 128.141463 91.465962 
L 129.235774 91.778487 
L 130.333041 92.123559 
L 131.432855 92.501073 
L 132.534799 92.910912 
L 133.638451 93.352952 
L 134.743381 93.827059 
L 135.849153 94.333088 
L 136.955325 94.870885 
L 138.061448 95.440287 
L 139.167067 96.041119 
L 140.271725 96.673199 
L 141.374955 97.336334 
L 142.476287 98.030322 
L 143.575249 98.754952 
L 144.671359 99.510003 
L 145.764137 100.295245 
L 146.853095 101.110439 
L 147.937743 101.955337 
L 149.017589 102.829681 
L 150.092137 103.733205 
L 151.16089 104.665633 
L 152.223347 105.626682 
L 153.279007 106.616059 
L 154.327368 107.633463 
L 155.367927 108.678583 
L 156.40018 109.751101 
L 157.423623 110.850691 
L 158.437753 111.977017 
L 159.442069 113.129737 
L 160.436069 114.3085 
L 161.419254 115.512945 
L 162.391127 116.742707 
L 163.351193 117.997411 
L 164.298961 119.276675 
L 165.233944 120.580108 
L 166.155656 121.907315 
L 167.063619 123.25789 
L 167.957357 124.631422 
L 168.8364 126.027493 
L 169.700284 127.445678 
L 170.548552 128.885545 
L 171.380751 130.346654 
L 172.196438 131.828561 
L 172.995174 133.330815 
L 173.776531 134.852958 
L 174.540087 136.394526 
L 175.285429 137.95505 
L 176.012155 139.534054 
L 176.719869 141.131058 
L 177.408187 142.745574 
L 178.076736 144.377112 
L 178.72515 146.025173 
L 179.353079 147.689257 
L 179.960179 149.368856 
L 180.546121 151.063459 
L 181.110587 152.772549 
L 181.653272 154.495605 
L 182.173881 156.232104 
L 182.672134 157.981516 
L 183.147765 159.743308 
L 183.600518 161.516943 
L 184.030154 163.301881 
L 184.436447 165.097579 
L 184.819182 166.90349 
L 185.178164 168.719062 
L 185.513206 170.543744 
L 185.824142 172.37698 
L 186.110815 174.218211 
L 186.373087 176.066875 
L 186.610833 177.922411 
L 186.823945 179.784253 
L 187.012327 181.651834 
L 187.175902 183.524585 
L 187.314605 185.401935 
L 187.42839 187.283312 
L 187.517223 189.168144 
L 187.581087 191.055857 
L 187.61998 192.945874 
L 187.633917 194.837622 
L 187.622926 196.730523 
z
" clip-path="url(#p77d5861799)" style="fill: #d7e7f3; opacity: 0.85; stroke: #d7e7f3; stroke-width: 0.24; stroke-linejoin: miter"/>
   </g>
   <g id="matplotlib.axis_1"/>
   <g id="matplotlib.axis_2"/>
   <g id="line2d_3">
    <path d="M 187.58705 198.624 
L 187.330789 204.302126 
L 186.853602 209.964688 
L 186.159083 215.596166 
L 185.251963 221.181125 
L 184.13806 226.704256 
L 182.824214 232.150421 
L 181.318212 237.504692 
L 179.628709 242.752395 
L 177.765143 247.879144 
L 175.737636 252.870888 
L 173.556908 257.713946 
L 171.234171 262.395042 
L 168.781036 266.901346 
L 166.20941 271.220507 
L 163.531403 275.340685 
L 160.75923 279.250589 
L 157.905126 282.9395 
L 154.981253 286.397309 
L 151.999627 289.614537 
L 148.972038 292.582367 
L 145.909988 295.292663 
L 142.824624 297.737997 
L 139.726691 299.911666 
L 136.626485 301.807713 
L 133.533813 303.420941 
L 130.457966 304.746927 
L 127.407693 305.782038 
L 124.39119 306.523437 
L 121.416084 306.96909 
L 118.489435 307.117777 
L 115.617741 306.96909 
L 112.80694 306.523437 
L 110.06243 305.782038 
L 107.389083 304.746927 
L 104.791269 303.420941 
L 102.272878 301.807713 
L 99.837349 299.911666 
L 97.487702 297.737997 
L 95.226563 295.292663 
L 93.056204 292.582367 
L 90.978571 289.614537 
L 88.995321 286.397309 
L 87.107851 282.9395 
L 85.317336 279.250589 
L 83.624758 275.340685 
L 82.03094 271.220507 
L 80.060656 265.419439 
L 78.268533 259.29295 
L 76.65573 252.870888 
L 75.223298 246.184541 
L 73.972267 239.266484 
L 72.903725 232.150421 
L 72.018879 224.87102 
L 71.319105 217.463747 
L 70.805987 209.964688 
L 70.481329 202.410378 
L 70.347169 194.837622 
L 70.405761 187.283312 
L 70.659552 179.784253 
L 71.111142 172.37698 
L 71.76322 165.097579 
L 72.618496 157.981516 
L 73.679607 151.063459 
L 74.949018 144.377112 
L 76.4289 137.95505 
L 78.120999 131.828561 
L 79.530075 127.445678 
L 81.059439 123.25789 
L 82.709061 119.276675 
L 84.478609 115.512945 
L 86.367402 111.977017 
L 88.374374 108.678583 
L 90.498033 105.626682 
L 92.736419 102.829681 
L 95.08707 100.295245 
L 97.546983 98.030322 
L 100.112576 96.041119 
L 102.779665 94.333088 
L 105.543429 92.910912 
L 108.398392 91.778487 
L 111.338401 90.938919 
L 114.356616 90.394509 
L 117.445503 90.146747 
L 120.596835 90.196315 
L 123.801698 90.543075 
L 127.050509 91.186077 
L 130.333041 92.123559 
L 133.638451 93.352952 
L 136.955325 94.870885 
L 140.271725 96.673199 
L 143.575249 98.754952 
L 146.853095 101.110439 
L 150.092137 103.733205 
L 153.279007 106.616059 
L 156.40018 109.751101 
L 159.442069 113.129737 
L 162.391127 116.742707 
L 165.233944 120.580108 
L 167.957357 124.631422 
L 170.548552 128.885545 
L 172.995174 133.330815 
L 175.285429 137.95505 
L 177.408187 142.745574 
L 179.353079 147.689257 
L 181.110587 152.772549 
L 182.672134 157.981516 
L 184.030154 163.301881 
L 185.178164 168.719062 
L 186.110815 174.218211 
L 186.823945 179.784253 
L 187.314605 185.401935 
L 187.581087 191.055857 
L 187.622926 196.730523 
L 187.58705 198.624 
L 187.58705 198.624 
" clip-path="url(#p77d5861799)" style="fill: none; stroke: #2f5d7e; stroke-width: 2.6; stroke-linecap: square"/>
   </g>
   <g id="PathCollection_1">
    <defs>
     <path id="mbc390ba0dd" d="M 0 2.54951 
C 0.676138 2.54951 1.324674 2.280877 1.802776 1.802776 
C 2.280877 1.324674 2.54951 0.676138 2.54951 0 
C 2.54951 -0.676138 2.280877 -1.324674 1.802776 -1.802776 
C 1.324674 -2.280877 0.676138 -2.54951 0 -2.54951 
C -0.676138 -2.54951 -1.324674 -2.280877 -1.802776 -1.802776 
C -2.280877 -1.324674 -2.54951 -0.676138 -2.54951 0 
C -2.54951 0.676138 -2.280877 1.324674 -1.802776 1.802776 
C -1.324674 2.280877 -0.676138 2.54951 0 2.54951 
z
" style="stroke: #243746; stroke-width: 0.24"/>
    </defs>
    <g clip-path="url(#p77d5861799)">
     <use xlink:href="#mbc390ba0dd" x="128.988675" y="198.624" style="fill: #243746; stroke: #243746; stroke-width: 0.24"/>
    </g>
   </g>
   <g id="text_1">
    <!-- fewer Fourier offsets -->
    <g style="fill: #7a828a" transform="translate(67.115664 306.130935) scale(0.12 -0.12)">
     <defs>
      <path id="DejaVuSans-66" d="M 2375 4863 
L 2375 4384 
L 1825 4384 
Q 1516 4384 1395 4259 
Q 1275 4134 1275 3809 
L 1275 3500 
L 2222 3500 
L 2222 3053 
L 1275 3053 
L 1275 0 
L 697 0 
L 697 3053 
L 147 3053 
L 147 3500 
L 697 3500 
L 697 3744 
Q 697 4328 969 4595 
Q 1241 4863 1831 4863 
L 2375 4863 
z
" transform="scale(0.015625)"/>
      <path id="DejaVuSans-65" d="M 3597 1894 
L 3597 1613 
L 953 1613 
Q 991 1019 1311 708 
Q 1631 397 2203 397 
Q 2534 397 2845 478 
Q 3156 559 3463 722 
L 3463 178 
Q 3153 47 2828 -22 
Q 2503 -91 2169 -91 
Q 1331 -91 842 396 
Q 353 884 353 1716 
Q 353 2575 817 3079 
Q 1281 3584 2069 3584 
Q 2775 3584 3186 3129 
Q 3597 2675 3597 1894 
z
M 3022 2063 
Q 3016 2534 2758 2815 
Q 2500 3097 2075 3097 
Q 1594 3097 1305 2825 
Q 1016 2553 972 2059 
L 3022 2063 
z
" transform="scale(0.015625)"/>
      <path id="DejaVuSans-77" d="M 269 3500 
L 844 3500 
L 1563 769 
L 2278 3500 
L 2956 3500 
L 3675 769 
L 4391 3500 
L 4966 3500 
L 4050 0 
L 3372 0 
L 2619 2869 
L 1863 0 
L 1184 0 
L 269 3500 
z
" transform="scale(0.015625)"/>
      <path id="DejaVuSans-72" d="M 2631 2963 
Q 2534 3019 2420 3045 
Q 2306 3072 2169 3072 
Q 1681 3072 1420 2755 
Q 1159 2438 1159 1844 
L 1159 0 
L 581 0 
L 581 3500 
L 1159 3500 
L 1159 2956 
Q 1341 3275 1631 3429 
Q 1922 3584 2338 3584 
Q 2397 3584 2469 3576 
Q 2541 3569 2628 3553 
L 2631 2963 
z
" transform="scale(0.015625)"/>
      <path id="DejaVuSans-20" transform="scale(0.015625)"/>
      <path id="DejaVuSans-46" d="M 628 4666 
L 3309 4666 
L 3309 4134 
L 1259 4134 
L 1259 2759 
L 3109 2759 
L 3109 2228 
L 1259 2228 
L 1259 0 
L 628 0 
L 628 4666 
z
" transform="scale(0.015625)"/>
      <path id="DejaVuSans-6f" d="M 1959 3097 
Q 1497 3097 1228 2736 
Q 959 2375 959 1747 
Q 959 1119 1226 758 
Q 1494 397 1959 397 
Q 2419 397 2687 759 
Q 2956 1122 2956 1747 
Q 2956 2369 2687 2733 
Q 2419 3097 1959 3097 
z
M 1959 3584 
Q 2709 3584 3137 3096 
Q 3566 2609 3566 1747 
Q 3566 888 3137 398 
Q 2709 -91 1959 -91 
Q 1206 -91 779 398 
Q 353 888 353 1747 
Q 353 2609 779 3096 
Q 1206 3584 1959 3584 
z
" transform="scale(0.015625)"/>
      <path id="DejaVuSans-75" d="M 544 1381 
L 544 3500 
L 1119 3500 
L 1119 1403 
Q 1119 906 1312 657 
Q 1506 409 1894 409 
Q 2359 409 2629 706 
Q 2900 1003 2900 1516 
L 2900 3500 
L 3475 3500 
L 3475 0 
L 2900 0 
L 2900 538 
Q 2691 219 2414 64 
Q 2138 -91 1772 -91 
Q 1169 -91 856 284 
Q 544 659 544 1381 
z
M 1991 3584 
L 1991 3584 
z
" transform="scale(0.015625)"/>
      <path id="DejaVuSans-69" d="M 603 3500 
L 1178 3500 
L 1178 0 
L 603 0 
L 603 3500 
z
M 603 4863 
L 1178 4863 
L 1178 4134 
L 603 4134 
L 603 4863 
z
" transform="scale(0.015625)"/>
      <path id="DejaVuSans-73" d="M 2834 3397 
L 2834 2853 
Q 2591 2978 2328 3040 
Q 2066 3103 1784 3103 
Q 1356 3103 1142 2972 
Q 928 2841 928 2578 
Q 928 2378 1081 2264 
Q 1234 2150 1697 2047 
L 1894 2003 
Q 2506 1872 2764 1633 
Q 3022 1394 3022 966 
Q 3022 478 2636 193 
Q 2250 -91 1575 -91 
Q 1294 -91 989 -36 
Q 684 19 347 128 
L 347 722 
Q 666 556 975 473 
Q 1284 391 1588 391 
Q 1994 391 2212 530 
Q 2431 669 2431 922 
Q 2431 1156 2273 1281 
Q 2116 1406 1581 1522 
L 1381 1569 
Q 847 1681 609 1914 
Q 372 2147 372 2553 
Q 372 3047 722 3315 
Q 1072 3584 1716 3584 
Q 2034 3584 2315 3537 
Q 2597 3491 2834 3397 
z
" transform="scale(0.015625)"/>
      <path id="DejaVuSans-74" d="M 1172 4494 
L 1172 3500 
L 2356 3500 
L 2356 3053 
L 1172 3053 
L 1172 1153 
Q 1172 725 1289 603 
Q 1406 481 1766 481 
L 2356 481 
L 2356 0 
L 1766 0 
Q 1100 0 847 248 
Q 594 497 594 1153 
L 594 3053 
L 172 3053 
L 172 3500 
L 594 3500 
L 594 4494 
L 1172 4494 
z
" transform="scale(0.015625)"/>
     </defs>
     <use xlink:href="#DejaVuSans-66"/>
     <use xlink:href="#DejaVuSans-65" transform="translate(35.205078 0)"/>
     <use xlink:href="#DejaVuSans-77" transform="translate(96.728516 0)"/>
     <use xlink:href="#DejaVuSans-65" transform="translate(178.515625 0)"/>
     <use xlink:href="#DejaVuSans-72" transform="translate(240.039062 0)"/>
     <use xlink:href="#DejaVuSans-20" transform="translate(281.152344 0)"/>
     <use xlink:href="#DejaVuSans-46" transform="translate(312.939453 0)"/>
     <use xlink:href="#DejaVuSans-6f" transform="translate(366.833984 0)"/>
     <use xlink:href="#DejaVuSans-75" transform="translate(428.015625 0)"/>
     <use xlink:href="#DejaVuSans-72" transform="translate(491.394531 0)"/>
     <use xlink:href="#DejaVuSans-69" transform="translate(532.507812 0)"/>
     <use xlink:href="#DejaVuSans-65" transform="translate(560.291016 0)"/>
     <use xlink:href="#DejaVuSans-72" transform="translate(621.814453 0)"/>
     <use xlink:href="#DejaVuSans-20" transform="translate(662.927734 0)"/>
     <use xlink:href="#DejaVuSans-6f" transform="translate(694.714844 0)"/>
     <use xlink:href="#DejaVuSans-66" transform="translate(755.896484 0)"/>
     <use xlink:href="#DejaVuSans-66" transform="translate(791.101562 0)"/>
     <use xlink:href="#DejaVuSans-73" transform="translate(826.306641 0)"/>
     <use xlink:href="#DejaVuSans-65" transform="translate(878.40625 0)"/>
     <use xlink:href="#DejaVuSans-74" transform="translate(939.929688 0)"/>
     <use xlink:href="#DejaVuSans-73" transform="translate(979.138672 0)"/>
    </g>
   </g>
   <g id="text_2">
    <!-- Lower-precision boundary -->
    <g style="fill: #243746" transform="translate(26.05707 75.6) scale(0.14 -0.14)">
     <defs>
      <path id="DejaVuSans-Bold-4c" d="M 588 4666 
L 1791 4666 
L 1791 909 
L 3903 909 
L 3903 0 
L 588 0 
L 588 4666 
z
" transform="scale(0.015625)"/>
      <path id="DejaVuSans-Bold-6f" d="M 2203 2784 
Q 1831 2784 1636 2517 
Q 1441 2250 1441 1747 
Q 1441 1244 1636 976 
Q 1831 709 2203 709 
Q 2569 709 2762 976 
Q 2956 1244 2956 1747 
Q 2956 2250 2762 2517 
Q 2569 2784 2203 2784 
z
M 2203 3584 
Q 3106 3584 3614 3096 
Q 4122 2609 4122 1747 
Q 4122 884 3614 396 
Q 3106 -91 2203 -91 
Q 1297 -91 786 396 
Q 275 884 275 1747 
Q 275 2609 786 3096 
Q 1297 3584 2203 3584 
z
" transform="scale(0.015625)"/>
      <path id="DejaVuSans-Bold-77" d="M 225 3500 
L 1313 3500 
L 1900 1088 
L 2491 3500 
L 3425 3500 
L 4013 1113 
L 4603 3500 
L 5691 3500 
L 4769 0 
L 3547 0 
L 2956 2406 
L 2369 0 
L 1147 0 
L 225 3500 
z
" transform="scale(0.015625)"/>
      <path id="DejaVuSans-Bold-65" d="M 4031 1759 
L 4031 1441 
L 1416 1441 
Q 1456 1047 1700 850 
Q 1944 653 2381 653 
Q 2734 653 3104 758 
Q 3475 863 3866 1075 
L 3866 213 
Q 3469 63 3072 -14 
Q 2675 -91 2278 -91 
Q 1328 -91 801 392 
Q 275 875 275 1747 
Q 275 2603 792 3093 
Q 1309 3584 2216 3584 
Q 3041 3584 3536 3087 
Q 4031 2591 4031 1759 
z
M 2881 2131 
Q 2881 2450 2695 2645 
Q 2509 2841 2209 2841 
Q 1884 2841 1681 2658 
Q 1478 2475 1428 2131 
L 2881 2131 
z
" transform="scale(0.015625)"/>
      <path id="DejaVuSans-Bold-72" d="M 3138 2547 
Q 2991 2616 2845 2648 
Q 2700 2681 2553 2681 
Q 2122 2681 1889 2404 
Q 1656 2128 1656 1613 
L 1656 0 
L 538 0 
L 538 3500 
L 1656 3500 
L 1656 2925 
Q 1872 3269 2151 3426 
Q 2431 3584 2822 3584 
Q 2878 3584 2943 3579 
Q 3009 3575 3134 3559 
L 3138 2547 
z
" transform="scale(0.015625)"/>
      <path id="DejaVuSans-Bold-2d" d="M 347 2297 
L 2309 2297 
L 2309 1388 
L 347 1388 
L 347 2297 
z
" transform="scale(0.015625)"/>
      <path id="DejaVuSans-Bold-70" d="M 1656 506 
L 1656 -1331 
L 538 -1331 
L 538 3500 
L 1656 3500 
L 1656 2988 
Q 1888 3294 2169 3439 
Q 2450 3584 2816 3584 
Q 3463 3584 3878 3070 
Q 4294 2556 4294 1747 
Q 4294 938 3878 423 
Q 3463 -91 2816 -91 
Q 2450 -91 2169 54 
Q 1888 200 1656 506 
z
M 2400 2772 
Q 2041 2772 1848 2508 
Q 1656 2244 1656 1747 
Q 1656 1250 1848 986 
Q 2041 722 2400 722 
Q 2759 722 2948 984 
Q 3138 1247 3138 1747 
Q 3138 2247 2948 2509 
Q 2759 2772 2400 2772 
z
" transform="scale(0.015625)"/>
      <path id="DejaVuSans-Bold-63" d="M 3366 3391 
L 3366 2478 
Q 3138 2634 2908 2709 
Q 2678 2784 2431 2784 
Q 1963 2784 1702 2511 
Q 1441 2238 1441 1747 
Q 1441 1256 1702 982 
Q 1963 709 2431 709 
Q 2694 709 2930 787 
Q 3166 866 3366 1019 
L 3366 103 
Q 3103 6 2833 -42 
Q 2563 -91 2291 -91 
Q 1344 -91 809 395 
Q 275 881 275 1747 
Q 275 2613 809 3098 
Q 1344 3584 2291 3584 
Q 2566 3584 2833 3536 
Q 3100 3488 3366 3391 
z
" transform="scale(0.015625)"/>
      <path id="DejaVuSans-Bold-69" d="M 538 3500 
L 1656 3500 
L 1656 0 
L 538 0 
L 538 3500 
z
M 538 4863 
L 1656 4863 
L 1656 3950 
L 538 3950 
L 538 4863 
z
" transform="scale(0.015625)"/>
      <path id="DejaVuSans-Bold-73" d="M 3272 3391 
L 3272 2541 
Q 2913 2691 2578 2766 
Q 2244 2841 1947 2841 
Q 1628 2841 1473 2761 
Q 1319 2681 1319 2516 
Q 1319 2381 1436 2309 
Q 1553 2238 1856 2203 
L 2053 2175 
Q 2913 2066 3209 1816 
Q 3506 1566 3506 1031 
Q 3506 472 3093 190 
Q 2681 -91 1863 -91 
Q 1516 -91 1145 -36 
Q 775 19 384 128 
L 384 978 
Q 719 816 1070 734 
Q 1422 653 1784 653 
Q 2113 653 2278 743 
Q 2444 834 2444 1013 
Q 2444 1163 2330 1236 
Q 2216 1309 1875 1350 
L 1678 1375 
Q 931 1469 631 1722 
Q 331 1975 331 2491 
Q 331 3047 712 3315 
Q 1094 3584 1881 3584 
Q 2191 3584 2531 3537 
Q 2872 3491 3272 3391 
z
" transform="scale(0.015625)"/>
      <path id="DejaVuSans-Bold-6e" d="M 4056 2131 
L 4056 0 
L 2931 0 
L 2931 347 
L 2931 1631 
Q 2931 2084 2911 2256 
Q 2891 2428 2841 2509 
Q 2775 2619 2662 2680 
Q 2550 2741 2406 2741 
Q 2056 2741 1856 2470 
Q 1656 2200 1656 1722 
L 1656 0 
L 538 0 
L 538 3500 
L 1656 3500 
L 1656 2988 
Q 1909 3294 2193 3439 
Q 2478 3584 2822 3584 
Q 3428 3584 3742 3212 
Q 4056 2841 4056 2131 
z
" transform="scale(0.015625)"/>
      <path id="DejaVuSans-Bold-20" transform="scale(0.015625)"/>
      <path id="DejaVuSans-Bold-62" d="M 2400 722 
Q 2759 722 2948 984 
Q 3138 1247 3138 1747 
Q 3138 2247 2948 2509 
Q 2759 2772 2400 2772 
Q 2041 2772 1848 2508 
Q 1656 2244 1656 1747 
Q 1656 1250 1848 986 
Q 2041 722 2400 722 
z
M 1656 2988 
Q 1888 3294 2169 3439 
Q 2450 3584 2816 3584 
Q 3463 3584 3878 3070 
Q 4294 2556 4294 1747 
Q 4294 938 3878 423 
Q 3463 -91 2816 -91 
Q 2450 -91 2169 54 
Q 1888 200 1656 506 
L 1656 0 
L 538 0 
L 538 4863 
L 1656 4863 
L 1656 2988 
z
" transform="scale(0.015625)"/>
      <path id="DejaVuSans-Bold-75" d="M 500 1363 
L 500 3500 
L 1625 3500 
L 1625 3150 
Q 1625 2866 1622 2436 
Q 1619 2006 1619 1863 
Q 1619 1441 1641 1255 
Q 1663 1069 1716 984 
Q 1784 875 1895 815 
Q 2006 756 2150 756 
Q 2500 756 2700 1025 
Q 2900 1294 2900 1772 
L 2900 3500 
L 4019 3500 
L 4019 0 
L 2900 0 
L 2900 506 
Q 2647 200 2364 54 
Q 2081 -91 1741 -91 
Q 1134 -91 817 281 
Q 500 653 500 1363 
z
" transform="scale(0.015625)"/>
      <path id="DejaVuSans-Bold-64" d="M 2919 2988 
L 2919 4863 
L 4044 4863 
L 4044 0 
L 2919 0 
L 2919 506 
Q 2688 197 2409 53 
Q 2131 -91 1766 -91 
Q 1119 -91 703 423 
Q 288 938 288 1747 
Q 288 2556 703 3070 
Q 1119 3584 1766 3584 
Q 2128 3584 2408 3439 
Q 2688 3294 2919 2988 
z
M 2181 722 
Q 2541 722 2730 984 
Q 2919 1247 2919 1747 
Q 2919 2247 2730 2509 
Q 2541 2772 2181 2772 
Q 1825 2772 1636 2509 
Q 1447 2247 1447 1747 
Q 1447 1247 1636 984 
Q 1825 722 2181 722 
z
" transform="scale(0.015625)"/>
      <path id="DejaVuSans-Bold-61" d="M 2106 1575 
Q 1756 1575 1579 1456 
Q 1403 1338 1403 1106 
Q 1403 894 1545 773 
Q 1688 653 1941 653 
Q 2256 653 2472 879 
Q 2688 1106 2688 1447 
L 2688 1575 
L 2106 1575 
z
M 3816 1997 
L 3816 0 
L 2688 0 
L 2688 519 
Q 2463 200 2181 54 
Q 1900 -91 1497 -91 
Q 953 -91 614 226 
Q 275 544 275 1050 
Q 275 1666 698 1953 
Q 1122 2241 2028 2241 
L 2688 2241 
L 2688 2328 
Q 2688 2594 2478 2717 
Q 2269 2841 1825 2841 
Q 1466 2841 1156 2769 
Q 847 2697 581 2553 
L 581 3406 
Q 941 3494 1303 3539 
Q 1666 3584 2028 3584 
Q 2975 3584 3395 3211 
Q 3816 2838 3816 1997 
z
" transform="scale(0.015625)"/>
      <path id="DejaVuSans-Bold-79" d="M 78 3500 
L 1197 3500 
L 2138 1125 
L 2938 3500 
L 4056 3500 
L 2584 -331 
Q 2363 -916 2067 -1148 
Q 1772 -1381 1288 -1381 
L 641 -1381 
L 641 -647 
L 991 -647 
Q 1275 -647 1404 -556 
Q 1534 -466 1606 -231 
L 1638 -134 
L 78 3500 
z
" transform="scale(0.015625)"/>
     </defs>
     <use xlink:href="#DejaVuSans-Bold-4c"/>
     <use xlink:href="#DejaVuSans-Bold-6f" transform="translate(63.720703 0)"/>
     <use xlink:href="#DejaVuSans-Bold-77" transform="translate(132.421875 0)"/>
     <use xlink:href="#DejaVuSans-Bold-65" transform="translate(224.804688 0)"/>
     <use xlink:href="#DejaVuSans-Bold-72" transform="translate(292.626953 0)"/>
     <use xlink:href="#DejaVuSans-Bold-2d" transform="translate(341.943359 0)"/>
     <use xlink:href="#DejaVuSans-Bold-70" transform="translate(383.447266 0)"/>
     <use xlink:href="#DejaVuSans-Bold-72" transform="translate(455.029297 0)"/>
     <use xlink:href="#DejaVuSans-Bold-65" transform="translate(504.345703 0)"/>
     <use xlink:href="#DejaVuSans-Bold-63" transform="translate(572.167969 0)"/>
     <use xlink:href="#DejaVuSans-Bold-69" transform="translate(631.445312 0)"/>
     <use xlink:href="#DejaVuSans-Bold-73" transform="translate(665.722656 0)"/>
     <use xlink:href="#DejaVuSans-Bold-69" transform="translate(725.244141 0)"/>
     <use xlink:href="#DejaVuSans-Bold-6f" transform="translate(759.521484 0)"/>
     <use xlink:href="#DejaVuSans-Bold-6e" transform="translate(828.222656 0)"/>
     <use xlink:href="#DejaVuSans-Bold-20" transform="translate(899.414062 0)"/>
     <use xlink:href="#DejaVuSans-Bold-62" transform="translate(934.228516 0)"/>
     <use xlink:href="#DejaVuSans-Bold-6f" transform="translate(1005.810547 0)"/>
     <use xlink:href="#DejaVuSans-Bold-75" transform="translate(1074.511719 0)"/>
     <use xlink:href="#DejaVuSans-Bold-6e" transform="translate(1145.703125 0)"/>
     <use xlink:href="#DejaVuSans-Bold-64" transform="translate(1216.894531 0)"/>
     <use xlink:href="#DejaVuSans-Bold-61" transform="translate(1288.476562 0)"/>
     <use xlink:href="#DejaVuSans-Bold-72" transform="translate(1355.957031 0)"/>
     <use xlink:href="#DejaVuSans-Bold-79" transform="translate(1405.273438 0)"/>
    </g>
   </g>
  </g>
  <g id="axes_2">
   <g id="patch_4">
    <path d="M 369.557102 315.648 
L 503.90782 315.648 
L 503.90782 81.6 
L 369.557102 81.6 
z
" style="fill: #ffffff"/>
   </g>
   <g id="line2d_4">
    <path d="M 369.557102 198.624 
L 503.90782 198.624 
" clip-path="url(#pbcf213e7aa)" style="fill: none; stroke: #e9edf1; stroke-linecap: square"/>
   </g>
   <g id="line2d_5">
    <path d="M 436.732347 315.648 
L 436.732347 81.6 
" clip-path="url(#pbcf213e7aa)" style="fill: none; stroke: #e9edf1; stroke-linecap: square"/>
   </g>
   <g id="patch_5">
    <path d="M 495.175744 198.624 
L 495.06369 200.517477 
L 494.926914 202.410378 
L 494.765371 204.302126 
L 494.579018 206.192143 
L 494.367818 208.079856 
L 494.131734 209.964688 
L 493.87074 211.846065 
L 493.584815 213.723415 
L 493.27395 215.596166 
L 492.938147 217.463747 
L 492.577422 219.325589 
L 492.191808 221.181125 
L 491.781355 223.029789 
L 491.346133 224.87102 
L 490.886234 226.704256 
L 490.401771 228.528938 
L 489.892885 230.34451 
L 489.359741 232.150421 
L 488.802534 233.946119 
L 488.221485 235.731057 
L 487.616848 237.504692 
L 486.988906 239.266484 
L 486.337972 241.015896 
L 485.664395 242.752395 
L 484.968552 244.475451 
L 484.250854 246.184541 
L 483.511742 247.879144 
L 482.751689 249.558743 
L 481.971197 251.222827 
L 481.170799 252.870888 
L 480.351054 254.502426 
L 479.512548 256.116942 
L 478.655892 257.713946 
L 477.781717 259.29295 
L 476.890677 260.853474 
L 475.983444 262.395042 
L 475.060704 263.917185 
L 474.123158 265.419439 
L 473.171514 266.901346 
L 472.206491 268.362455 
L 471.228812 269.802322 
L 470.239199 271.220507 
L 469.238376 272.616578 
L 468.227063 273.99011 
L 467.20597 275.340685 
L 466.175801 276.667892 
L 465.137246 277.971325 
L 464.090981 279.250589 
L 463.037663 280.505293 
L 461.977933 281.735055 
L 460.912408 282.9395 
L 459.841681 284.118263 
L 458.766324 285.270983 
L 457.686878 286.397309 
L 456.603861 287.496899 
L 455.517758 288.569417 
L 454.429029 289.614537 
L 453.338102 290.631941 
L 452.245377 291.621318 
L 451.151224 292.582367 
L 450.055984 293.514795 
L 448.959968 294.418319 
L 447.863461 295.292663 
L 446.766722 296.137561 
L 445.669985 296.952755 
L 444.573458 297.737997 
L 443.477329 298.493048 
L 442.381767 299.217678 
L 441.286921 299.911666 
L 440.192928 300.574801 
L 439.099908 301.206881 
L 438.007973 301.807713 
L 436.917228 302.377115 
L 435.82777 302.914912 
L 434.739696 303.420941 
L 433.653103 303.895048 
L 432.568092 304.337088 
L 431.484767 304.746927 
L 430.403244 305.124441 
L 429.323651 305.469513 
L 428.246126 305.782038 
L 427.170828 306.061923 
L 426.097933 306.309081 
L 425.027638 306.523437 
L 423.960163 306.704925 
L 422.895754 306.853491 
L 421.834682 306.96909 
L 420.777247 307.051685 
L 419.723776 307.101253 
L 418.674628 307.117777 
L 417.630191 307.101253 
L 416.590882 307.051685 
L 415.55715 306.96909 
L 414.529473 306.853491 
L 413.508357 306.704925 
L 412.494336 306.523437 
L 411.48797 306.309081 
L 410.489843 306.061923 
L 409.500562 305.782038 
L 408.520753 305.469513 
L 407.551059 305.124441 
L 406.592135 304.746927 
L 405.64465 304.337088 
L 404.709278 303.895048 
L 403.786696 303.420941 
L 402.877581 302.914912 
L 401.982605 302.377115 
L 401.102432 301.807713 
L 400.237713 301.206881 
L 399.389082 300.574801 
L 398.557152 299.911666 
L 397.742509 299.217678 
L 396.945713 298.493048 
L 396.167288 297.737997 
L 395.407725 296.952755 
L 394.667471 296.137561 
L 393.946935 295.292663 
L 393.246476 294.418319 
L 392.566408 293.514795 
L 391.906994 292.582367 
L 391.268444 291.621318 
L 390.650918 290.631941 
L 390.054521 289.614537 
L 389.479302 288.569417 
L 388.925258 287.496899 
L 388.392333 286.397309 
L 387.880416 285.270983 
L 387.389346 284.118263 
L 386.918912 282.9395 
L 386.468854 281.735055 
L 386.038867 280.505293 
L 385.628604 279.250589 
L 385.237675 277.971325 
L 384.865654 276.667892 
L 384.512082 275.340685 
L 384.176468 273.99011 
L 383.858294 272.616578 
L 383.557018 271.220507 
L 383.272078 269.802322 
L 383.002894 268.362455 
L 382.748875 266.901346 
L 382.509417 265.419439 
L 382.28391 263.917185 
L 382.071741 262.395042 
L 381.872294 260.853474 
L 381.684957 259.29295 
L 381.50912 257.713946 
L 381.34418 256.116942 
L 381.18954 254.502426 
L 381.044615 252.870888 
L 380.908832 251.222827 
L 380.781627 249.558743 
L 380.662453 247.879144 
L 380.550775 246.184541 
L 380.446074 244.475451 
L 380.347846 242.752395 
L 380.255602 241.015896 
L 380.16887 239.266484 
L 380.087193 237.504692 
L 380.010131 235.731057 
L 379.937257 233.946119 
L 379.868164 232.150421 
L 379.802456 230.34451 
L 379.739755 228.528938 
L 379.6797 226.704256 
L 379.621944 224.87102 
L 379.566156 223.029789 
L 379.512022 221.181125 
L 379.459244 219.325589 
L 379.407543 217.463747 
L 379.356657 215.596166 
L 379.306345 213.723415 
L 379.256385 211.846065 
L 379.206578 209.964688 
L 379.156748 208.079856 
L 379.106743 206.192143 
L 379.05644 204.302126 
L 379.005744 202.410378 
L 378.954589 200.517477 
L 378.902943 198.624 
L 378.85081 196.730523 
L 378.79823 194.837622 
L 378.745282 192.945874 
L 378.692086 191.055857 
L 378.638805 189.168144 
L 378.585649 187.283312 
L 378.532872 185.401935 
L 378.480776 183.524585 
L 378.429715 181.651834 
L 378.38009 179.784253 
L 378.332354 177.922411 
L 378.287013 176.066875 
L 378.24462 174.218211 
L 378.205782 172.37698 
L 378.171154 170.543744 
L 378.141438 168.719062 
L 378.117385 166.90349 
L 378.099788 165.097579 
L 378.089483 163.301881 
L 378.087342 161.516943 
L 378.094274 159.743308 
L 378.111216 157.981516 
L 378.139133 156.232104 
L 378.17901 154.495605 
L 378.231849 152.772549 
L 378.298659 151.063459 
L 378.380458 149.368856 
L 378.478258 147.689257 
L 378.593065 146.025173 
L 378.725871 144.377112 
L 378.877646 142.745574 
L 379.049333 141.131058 
L 379.241841 139.534054 
L 379.456039 137.95505 
L 379.692751 136.394526 
L 379.952748 134.852958 
L 380.236744 133.330815 
L 380.545392 131.828561 
L 380.879275 130.346654 
L 381.238907 128.885545 
L 381.624727 127.445678 
L 382.037096 126.027493 
L 382.476296 124.631422 
L 382.942525 123.25789 
L 383.435901 121.907315 
L 383.956457 120.580108 
L 384.504143 119.276675 
L 385.078827 117.997411 
L 385.680299 116.742707 
L 386.308267 115.512945 
L 386.962368 114.3085 
L 387.642165 113.129737 
L 388.347152 111.977017 
L 389.076764 110.850691 
L 389.830373 109.751101 
L 390.607301 108.678583 
L 391.40682 107.633463 
L 392.228162 106.616059 
L 393.070523 105.626682 
L 393.933066 104.665633 
L 394.814935 103.733205 
L 395.715253 102.829681 
L 396.633131 101.955337 
L 397.567677 101.110439 
L 398.517996 100.295245 
L 399.483199 99.510003 
L 400.462408 98.754952 
L 401.45476 98.030322 
L 402.459411 97.336334 
L 403.475541 96.673199 
L 404.502359 96.041119 
L 405.539102 95.440287 
L 406.585042 94.870885 
L 407.639488 94.333088 
L 408.701784 93.827059 
L 409.771314 93.352952 
L 410.847504 92.910912 
L 411.929818 92.501073 
L 413.017764 92.123559 
L 414.110887 91.778487 
L 415.208775 91.465962 
L 416.311052 91.186077 
L 417.417382 90.938919 
L 418.527463 90.724563 
L 419.641028 90.543075 
L 420.757841 90.394509 
L 421.877695 90.27891 
L 423.000409 90.196315 
L 424.125826 90.146747 
L 425.253809 90.130223 
L 426.384239 90.146747 
L 427.517011 90.196315 
L 428.65203 90.27891 
L 429.789208 90.394509 
L 430.928463 90.543075 
L 432.069713 90.724563 
L 433.212873 90.938919 
L 434.357853 91.186077 
L 435.504555 91.465962 
L 436.652867 91.778487 
L 437.802664 92.123559 
L 438.953806 92.501073 
L 440.10613 92.910912 
L 441.259453 93.352952 
L 442.413567 93.827059 
L 443.56824 94.333088 
L 444.723212 94.870885 
L 445.878193 95.440287 
L 447.032866 96.041119 
L 448.186881 96.673199 
L 449.339858 97.336334 
L 450.491387 98.030322 
L 451.641026 98.754952 
L 452.788302 99.510003 
L 453.932712 100.295245 
L 455.073724 101.110439 
L 456.210777 101.955337 
L 457.343286 102.829681 
L 458.470639 103.733205 
L 459.5922 104.665633 
L 460.707314 105.626682 
L 461.815307 106.616059 
L 462.915488 107.633463 
L 464.007151 108.678583 
L 465.089583 109.751101 
L 466.162059 110.850691 
L 467.223851 111.977017 
L 468.274228 113.129737 
L 469.312458 114.3085 
L 470.337816 115.512945 
L 471.349581 116.742707 
L 472.347041 117.997411 
L 473.329499 119.276675 
L 474.296269 120.580108 
L 475.246684 121.907315 
L 476.180098 123.25789 
L 477.095883 124.631422 
L 477.993438 126.027493 
L 478.872187 127.445678 
L 479.731579 128.885545 
L 480.571093 130.346654 
L 481.390238 131.828561 
L 482.18855 133.330815 
L 482.965598 134.852958 
L 483.720983 136.394526 
L 484.454335 137.95505 
L 485.165316 139.534054 
L 485.853618 141.131058 
L 486.518963 142.745574 
L 487.161103 144.377112 
L 487.779817 146.025173 
L 488.374911 147.689257 
L 488.946217 149.368856 
L 489.493591 151.063459 
L 490.016911 152.772549 
L 490.516077 154.495605 
L 490.991005 156.232104 
L 491.441631 157.981516 
L 491.867906 159.743308 
L 492.269791 161.516943 
L 492.647263 163.301881 
L 493.000305 165.097579 
L 493.32891 166.90349 
L 493.633074 168.719062 
L 493.912801 170.543744 
L 494.168095 172.37698 
L 494.398961 174.218211 
L 494.605405 176.066875 
L 494.787432 177.922411 
L 494.945043 179.784253 
L 495.078238 181.651834 
L 495.187009 183.524585 
L 495.271348 185.401935 
L 495.33124 187.283312 
L 495.366664 189.168144 
L 495.377596 191.055857 
L 495.364006 192.945874 
L 495.32586 194.837622 
L 495.26312 196.730523 
z
" clip-path="url(#pbcf213e7aa)" style="fill: #f4d1bc; opacity: 0.85; stroke: #f4d1bc; stroke-width: 0.24; stroke-linejoin: miter"/>
   </g>
   <g id="matplotlib.axis_3"/>
   <g id="matplotlib.axis_4"/>
   <g id="line2d_6">
    <path d="M 495.175744 198.624 
L 494.765371 204.302126 
L 494.131734 209.964688 
L 493.27395 215.596166 
L 492.191808 221.181125 
L 490.886234 226.704256 
L 489.359741 232.150421 
L 487.616848 237.504692 
L 485.664395 242.752395 
L 483.511742 247.879144 
L 481.170799 252.870888 
L 478.655892 257.713946 
L 475.983444 262.395042 
L 473.171514 266.901346 
L 470.239199 271.220507 
L 467.20597 275.340685 
L 464.090981 279.250589 
L 460.912408 282.9395 
L 457.686878 286.397309 
L 454.429029 289.614537 
L 451.151224 292.582367 
L 447.863461 295.292663 
L 444.573458 297.737997 
L 441.286921 299.911666 
L 438.007973 301.807713 
L 434.739696 303.420941 
L 431.484767 304.746927 
L 428.246126 305.782038 
L 425.027638 306.523437 
L 421.834682 306.96909 
L 418.674628 307.117777 
L 415.55715 306.96909 
L 412.494336 306.523437 
L 409.500562 305.782038 
L 406.592135 304.746927 
L 403.786696 303.420941 
L 401.102432 301.807713 
L 398.557152 299.911666 
L 396.167288 297.737997 
L 393.946935 295.292663 
L 391.906994 292.582367 
L 390.054521 289.614537 
L 388.392333 286.397309 
L 386.918912 282.9395 
L 385.628604 279.250589 
L 384.512082 275.340685 
L 383.557018 271.220507 
L 382.748875 266.901346 
L 381.872294 260.853474 
L 381.18954 254.502426 
L 380.550775 246.184541 
L 380.010131 235.731057 
L 379.512022 221.181125 
L 378.171154 170.543744 
L 378.094274 159.743308 
L 378.231849 152.772549 
L 378.593065 146.025173 
L 379.049333 141.131058 
L 379.692751 136.394526 
L 380.545392 131.828561 
L 381.624727 127.445678 
L 382.942525 123.25789 
L 384.504143 119.276675 
L 386.308267 115.512945 
L 388.347152 111.977017 
L 390.607301 108.678583 
L 393.070523 105.626682 
L 395.715253 102.829681 
L 398.517996 100.295245 
L 401.45476 98.030322 
L 404.502359 96.041119 
L 407.639488 94.333088 
L 410.847504 92.910912 
L 414.110887 91.778487 
L 417.417382 90.938919 
L 420.757841 90.394509 
L 424.125826 90.146747 
L 427.517011 90.196315 
L 430.928463 90.543075 
L 434.357853 91.186077 
L 437.802664 92.123559 
L 441.259453 93.352952 
L 444.723212 94.870885 
L 448.186881 96.673199 
L 451.641026 98.754952 
L 455.073724 101.110439 
L 458.470639 103.733205 
L 461.815307 106.616059 
L 465.089583 109.751101 
L 468.274228 113.129737 
L 471.349581 116.742707 
L 474.296269 120.580108 
L 477.095883 124.631422 
L 479.731579 128.885545 
L 482.18855 133.330815 
L 484.454335 137.95505 
L 486.518963 142.745574 
L 488.374911 147.689257 
L 490.016911 152.772549 
L 491.441631 157.981516 
L 492.647263 163.301881 
L 493.633074 168.719062 
L 494.398961 174.218211 
L 494.945043 179.784253 
L 495.271348 185.401935 
L 495.377596 191.055857 
L 495.26312 196.730523 
L 495.175744 198.624 
L 495.175744 198.624 
" clip-path="url(#pbcf213e7aa)" style="fill: none; stroke: #d97941; stroke-width: 2.6; stroke-linecap: square"/>
   </g>
   <g id="PathCollection_2">
    <g clip-path="url(#pbcf213e7aa)">
     <use xlink:href="#mbc390ba0dd" x="436.732347" y="198.624" style="fill: #243746; stroke: #243746; stroke-width: 0.24"/>
    </g>
   </g>
   <g id="text_3">
    <!-- richer Fourier offsets -->
    <g style="fill: #7a828a" transform="translate(374.335274 306.130935) scale(0.12 -0.12)">
     <defs>
      <path id="DejaVuSans-63" d="M 3122 3366 
L 3122 2828 
Q 2878 2963 2633 3030 
Q 2388 3097 2138 3097 
Q 1578 3097 1268 2742 
Q 959 2388 959 1747 
Q 959 1106 1268 751 
Q 1578 397 2138 397 
Q 2388 397 2633 464 
Q 2878 531 3122 666 
L 3122 134 
Q 2881 22 2623 -34 
Q 2366 -91 2075 -91 
Q 1284 -91 818 406 
Q 353 903 353 1747 
Q 353 2603 823 3093 
Q 1294 3584 2113 3584 
Q 2378 3584 2631 3529 
Q 2884 3475 3122 3366 
z
" transform="scale(0.015625)"/>
      <path id="DejaVuSans-68" d="M 3513 2113 
L 3513 0 
L 2938 0 
L 2938 2094 
Q 2938 2591 2744 2837 
Q 2550 3084 2163 3084 
Q 1697 3084 1428 2787 
Q 1159 2491 1159 1978 
L 1159 0 
L 581 0 
L 581 4863 
L 1159 4863 
L 1159 2956 
Q 1366 3272 1645 3428 
Q 1925 3584 2291 3584 
Q 2894 3584 3203 3211 
Q 3513 2838 3513 2113 
z
" transform="scale(0.015625)"/>
     </defs>
     <use xlink:href="#DejaVuSans-72"/>
     <use xlink:href="#DejaVuSans-69" transform="translate(41.113281 0)"/>
     <use xlink:href="#DejaVuSans-63" transform="translate(68.896484 0)"/>
     <use xlink:href="#DejaVuSans-68" transform="translate(123.876953 0)"/>
     <use xlink:href="#DejaVuSans-65" transform="translate(187.255859 0)"/>
     <use xlink:href="#DejaVuSans-72" transform="translate(248.779297 0)"/>
     <use xlink:href="#DejaVuSans-20" transform="translate(289.892578 0)"/>
     <use xlink:href="#DejaVuSans-46" transform="translate(321.679688 0)"/>
     <use xlink:href="#DejaVuSans-6f" transform="translate(375.574219 0)"/>
     <use xlink:href="#DejaVuSans-75" transform="translate(436.755859 0)"/>
     <use xlink:href="#DejaVuSans-72" transform="translate(500.134766 0)"/>
     <use xlink:href="#DejaVuSans-69" transform="translate(541.248047 0)"/>
     <use xlink:href="#DejaVuSans-65" transform="translate(569.03125 0)"/>
     <use xlink:href="#DejaVuSans-72" transform="translate(630.554688 0)"/>
     <use xlink:href="#DejaVuSans-20" transform="translate(671.667969 0)"/>
     <use xlink:href="#DejaVuSans-6f" transform="translate(703.455078 0)"/>
     <use xlink:href="#DejaVuSans-66" transform="translate(764.636719 0)"/>
     <use xlink:href="#DejaVuSans-66" transform="translate(799.841797 0)"/>
     <use xlink:href="#DejaVuSans-73" transform="translate(835.046875 0)"/>
     <use xlink:href="#DejaVuSans-65" transform="translate(887.146484 0)"/>
     <use xlink:href="#DejaVuSans-74" transform="translate(948.669922 0)"/>
     <use xlink:href="#DejaVuSans-73" transform="translate(987.878906 0)"/>
    </g>
   </g>
   <g id="text_4">
    <!-- Higher-precision boundary -->
    <g style="fill: #243746" transform="translate(331.286211 75.6) scale(0.14 -0.14)">
     <defs>
      <path id="DejaVuSans-Bold-48" d="M 588 4666 
L 1791 4666 
L 1791 2888 
L 3566 2888 
L 3566 4666 
L 4769 4666 
L 4769 0 
L 3566 0 
L 3566 1978 
L 1791 1978 
L 1791 0 
L 588 0 
L 588 4666 
z
" transform="scale(0.015625)"/>
      <path id="DejaVuSans-Bold-67" d="M 2919 594 
Q 2688 288 2409 144 
Q 2131 0 1766 0 
Q 1125 0 706 504 
Q 288 1009 288 1791 
Q 288 2575 706 3076 
Q 1125 3578 1766 3578 
Q 2131 3578 2409 3434 
Q 2688 3291 2919 2981 
L 2919 3500 
L 4044 3500 
L 4044 353 
Q 4044 -491 3511 -936 
Q 2978 -1381 1966 -1381 
Q 1638 -1381 1331 -1331 
Q 1025 -1281 716 -1178 
L 716 -306 
Q 1009 -475 1290 -558 
Q 1572 -641 1856 -641 
Q 2406 -641 2662 -400 
Q 2919 -159 2919 353 
L 2919 594 
z
M 2181 2772 
Q 1834 2772 1640 2515 
Q 1447 2259 1447 1791 
Q 1447 1309 1634 1061 
Q 1822 813 2181 813 
Q 2531 813 2725 1069 
Q 2919 1325 2919 1791 
Q 2919 2259 2725 2515 
Q 2531 2772 2181 2772 
z
" transform="scale(0.015625)"/>
      <path id="DejaVuSans-Bold-68" d="M 4056 2131 
L 4056 0 
L 2931 0 
L 2931 347 
L 2931 1625 
Q 2931 2084 2911 2256 
Q 2891 2428 2841 2509 
Q 2775 2619 2662 2680 
Q 2550 2741 2406 2741 
Q 2056 2741 1856 2470 
Q 1656 2200 1656 1722 
L 1656 0 
L 538 0 
L 538 4863 
L 1656 4863 
L 1656 2988 
Q 1909 3294 2193 3439 
Q 2478 3584 2822 3584 
Q 3428 3584 3742 3212 
Q 4056 2841 4056 2131 
z
" transform="scale(0.015625)"/>
     </defs>
     <use xlink:href="#DejaVuSans-Bold-48"/>
     <use xlink:href="#DejaVuSans-Bold-69" transform="translate(83.691406 0)"/>
     <use xlink:href="#DejaVuSans-Bold-67" transform="translate(117.96875 0)"/>
     <use xlink:href="#DejaVuSans-Bold-68" transform="translate(189.550781 0)"/>
     <use xlink:href="#DejaVuSans-Bold-65" transform="translate(260.742188 0)"/>
     <use xlink:href="#DejaVuSans-Bold-72" transform="translate(328.564453 0)"/>
     <use xlink:href="#DejaVuSans-Bold-2d" transform="translate(377.880859 0)"/>
     <use xlink:href="#DejaVuSans-Bold-70" transform="translate(419.384766 0)"/>
     <use xlink:href="#DejaVuSans-Bold-72" transform="translate(490.966797 0)"/>
     <use xlink:href="#DejaVuSans-Bold-65" transform="translate(540.283203 0)"/>
     <use xlink:href="#DejaVuSans-Bold-63" transform="translate(608.105469 0)"/>
     <use xlink:href="#DejaVuSans-Bold-69" transform="translate(667.382812 0)"/>
     <use xlink:href="#DejaVuSans-Bold-73" transform="translate(701.660156 0)"/>
     <use xlink:href="#DejaVuSans-Bold-69" transform="translate(761.181641 0)"/>
     <use xlink:href="#DejaVuSans-Bold-6f" transform="translate(795.458984 0)"/>
     <use xlink:href="#DejaVuSans-Bold-6e" transform="translate(864.160156 0)"/>
     <use xlink:href="#DejaVuSans-Bold-20" transform="translate(935.351562 0)"/>
     <use xlink:href="#DejaVuSans-Bold-62" transform="translate(970.166016 0)"/>
     <use xlink:href="#DejaVuSans-Bold-6f" transform="translate(1041.748047 0)"/>
     <use xlink:href="#DejaVuSans-Bold-75" transform="translate(1110.449219 0)"/>
     <use xlink:href="#DejaVuSans-Bold-6e" transform="translate(1181.640625 0)"/>
     <use xlink:href="#DejaVuSans-Bold-64" transform="translate(1252.832031 0)"/>
     <use xlink:href="#DejaVuSans-Bold-61" transform="translate(1324.414062 0)"/>
     <use xlink:href="#DejaVuSans-Bold-72" transform="translate(1391.894531 0)"/>
     <use xlink:href="#DejaVuSans-Bold-79" transform="translate(1441.210938 0)"/>
    </g>
   </g>
  </g>
  <g id="text_5">
   <!-- Boundary Input Diversity -->
   <g transform="translate(169.593125 19.3575) scale(0.16 -0.16)">
    <defs>
     <path id="DejaVuSans-Bold-42" d="M 2456 2859 
Q 2741 2859 2887 2984 
Q 3034 3109 3034 3353 
Q 3034 3594 2887 3720 
Q 2741 3847 2456 3847 
L 1791 3847 
L 1791 2859 
L 2456 2859 
z
M 2497 819 
Q 2859 819 3042 972 
Q 3225 1125 3225 1434 
Q 3225 1738 3044 1889 
Q 2863 2041 2497 2041 
L 1791 2041 
L 1791 819 
L 2497 819 
z
M 3616 2497 
Q 4003 2384 4215 2081 
Q 4428 1778 4428 1338 
Q 4428 663 3972 331 
Q 3516 0 2584 0 
L 588 0 
L 588 4666 
L 2394 4666 
Q 3366 4666 3802 4372 
Q 4238 4078 4238 3431 
Q 4238 3091 4078 2852 
Q 3919 2613 3616 2497 
z
" transform="scale(0.015625)"/>
     <path id="DejaVuSans-Bold-49" d="M 588 4666 
L 1791 4666 
L 1791 0 
L 588 0 
L 588 4666 
z
" transform="scale(0.015625)"/>
     <path id="DejaVuSans-Bold-74" d="M 1759 4494 
L 1759 3500 
L 2913 3500 
L 2913 2700 
L 1759 2700 
L 1759 1216 
Q 1759 972 1856 886 
Q 1953 800 2241 800 
L 2816 800 
L 2816 0 
L 1856 0 
Q 1194 0 917 276 
Q 641 553 641 1216 
L 641 2700 
L 84 2700 
L 84 3500 
L 641 3500 
L 641 4494 
L 1759 4494 
z
" transform="scale(0.015625)"/>
     <path id="DejaVuSans-Bold-44" d="M 1791 3756 
L 1791 909 
L 2222 909 
Q 2959 909 3348 1275 
Q 3738 1641 3738 2338 
Q 3738 3031 3350 3393 
Q 2963 3756 2222 3756 
L 1791 3756 
z
M 588 4666 
L 1856 4666 
Q 2919 4666 3439 4514 
Q 3959 4363 4331 4000 
Q 4659 3684 4818 3271 
Q 4978 2859 4978 2338 
Q 4978 1809 4818 1395 
Q 4659 981 4331 666 
Q 3956 303 3431 151 
Q 2906 0 1856 0 
L 588 0 
L 588 4666 
z
" transform="scale(0.015625)"/>
     <path id="DejaVuSans-Bold-76" d="M 97 3500 
L 1216 3500 
L 2088 1081 
L 2956 3500 
L 4078 3500 
L 2700 0 
L 1472 0 
L 97 3500 
z
" transform="scale(0.015625)"/>
    </defs>
    <use xlink:href="#DejaVuSans-Bold-42"/>
    <use xlink:href="#DejaVuSans-Bold-6f" transform="translate(76.220703 0)"/>
    <use xlink:href="#DejaVuSans-Bold-75" transform="translate(144.921875 0)"/>
    <use xlink:href="#DejaVuSans-Bold-6e" transform="translate(216.113281 0)"/>
    <use xlink:href="#DejaVuSans-Bold-64" transform="translate(287.304688 0)"/>
    <use xlink:href="#DejaVuSans-Bold-61" transform="translate(358.886719 0)"/>
    <use xlink:href="#DejaVuSans-Bold-72" transform="translate(426.367188 0)"/>
    <use xlink:href="#DejaVuSans-Bold-79" transform="translate(475.683594 0)"/>
    <use xlink:href="#DejaVuSans-Bold-20" transform="translate(540.869141 0)"/>
    <use xlink:href="#DejaVuSans-Bold-49" transform="translate(575.683594 0)"/>
    <use xlink:href="#DejaVuSans-Bold-6e" transform="translate(612.890625 0)"/>
    <use xlink:href="#DejaVuSans-Bold-70" transform="translate(684.082031 0)"/>
    <use xlink:href="#DejaVuSans-Bold-75" transform="translate(755.664062 0)"/>
    <use xlink:href="#DejaVuSans-Bold-74" transform="translate(826.855469 0)"/>
    <use xlink:href="#DejaVuSans-Bold-20" transform="translate(874.658203 0)"/>
    <use xlink:href="#DejaVuSans-Bold-44" transform="translate(909.472656 0)"/>
    <use xlink:href="#DejaVuSans-Bold-69" transform="translate(992.480469 0)"/>
    <use xlink:href="#DejaVuSans-Bold-76" transform="translate(1026.757812 0)"/>
    <use xlink:href="#DejaVuSans-Bold-65" transform="translate(1091.943359 0)"/>
    <use xlink:href="#DejaVuSans-Bold-72" transform="translate(1159.765625 0)"/>
    <use xlink:href="#DejaVuSans-Bold-73" transform="translate(1209.082031 0)"/>
    <use xlink:href="#DejaVuSans-Bold-69" transform="translate(1268.603516 0)"/>
    <use xlink:href="#DejaVuSans-Bold-74" transform="translate(1302.880859 0)"/>
    <use xlink:href="#DejaVuSans-Bold-79" transform="translate(1350.683594 0)"/>
   </g>
  </g>
  <g id="text_6">
   <!-- Both examples share the same major radius and minor radius, but differ in harmonic detail. -->
   <g transform="translate(7.2 338.976) scale(0.12 -0.12)">
    <defs>
     <path id="DejaVuSans-42" d="M 1259 2228 
L 1259 519 
L 2272 519 
Q 2781 519 3026 730 
Q 3272 941 3272 1375 
Q 3272 1813 3026 2020 
Q 2781 2228 2272 2228 
L 1259 2228 
z
M 1259 4147 
L 1259 2741 
L 2194 2741 
Q 2656 2741 2882 2914 
Q 3109 3088 3109 3444 
Q 3109 3797 2882 3972 
Q 2656 4147 2194 4147 
L 1259 4147 
z
M 628 4666 
L 2241 4666 
Q 2963 4666 3353 4366 
Q 3744 4066 3744 3513 
Q 3744 3084 3544 2831 
Q 3344 2578 2956 2516 
Q 3422 2416 3680 2098 
Q 3938 1781 3938 1306 
Q 3938 681 3513 340 
Q 3088 0 2303 0 
L 628 0 
L 628 4666 
z
" transform="scale(0.015625)"/>
     <path id="DejaVuSans-78" d="M 3513 3500 
L 2247 1797 
L 3578 0 
L 2900 0 
L 1881 1375 
L 863 0 
L 184 0 
L 1544 1831 
L 300 3500 
L 978 3500 
L 1906 2253 
L 2834 3500 
L 3513 3500 
z
" transform="scale(0.015625)"/>
     <path id="DejaVuSans-61" d="M 2194 1759 
Q 1497 1759 1228 1600 
Q 959 1441 959 1056 
Q 959 750 1161 570 
Q 1363 391 1709 391 
Q 2188 391 2477 730 
Q 2766 1069 2766 1631 
L 2766 1759 
L 2194 1759 
z
M 3341 1997 
L 3341 0 
L 2766 0 
L 2766 531 
Q 2569 213 2275 61 
Q 1981 -91 1556 -91 
Q 1019 -91 701 211 
Q 384 513 384 1019 
Q 384 1609 779 1909 
Q 1175 2209 1959 2209 
L 2766 2209 
L 2766 2266 
Q 2766 2663 2505 2880 
Q 2244 3097 1772 3097 
Q 1472 3097 1187 3025 
Q 903 2953 641 2809 
L 641 3341 
Q 956 3463 1253 3523 
Q 1550 3584 1831 3584 
Q 2591 3584 2966 3190 
Q 3341 2797 3341 1997 
z
" transform="scale(0.015625)"/>
     <path id="DejaVuSans-6d" d="M 3328 2828 
Q 3544 3216 3844 3400 
Q 4144 3584 4550 3584 
Q 5097 3584 5394 3201 
Q 5691 2819 5691 2113 
L 5691 0 
L 5113 0 
L 5113 2094 
Q 5113 2597 4934 2840 
Q 4756 3084 4391 3084 
Q 3944 3084 3684 2787 
Q 3425 2491 3425 1978 
L 3425 0 
L 2847 0 
L 2847 2094 
Q 2847 2600 2669 2842 
Q 2491 3084 2119 3084 
Q 1678 3084 1418 2786 
Q 1159 2488 1159 1978 
L 1159 0 
L 581 0 
L 581 3500 
L 1159 3500 
L 1159 2956 
Q 1356 3278 1631 3431 
Q 1906 3584 2284 3584 
Q 2666 3584 2933 3390 
Q 3200 3197 3328 2828 
z
" transform="scale(0.015625)"/>
     <path id="DejaVuSans-70" d="M 1159 525 
L 1159 -1331 
L 581 -1331 
L 581 3500 
L 1159 3500 
L 1159 2969 
Q 1341 3281 1617 3432 
Q 1894 3584 2278 3584 
Q 2916 3584 3314 3078 
Q 3713 2572 3713 1747 
Q 3713 922 3314 415 
Q 2916 -91 2278 -91 
Q 1894 -91 1617 61 
Q 1341 213 1159 525 
z
M 3116 1747 
Q 3116 2381 2855 2742 
Q 2594 3103 2138 3103 
Q 1681 3103 1420 2742 
Q 1159 2381 1159 1747 
Q 1159 1113 1420 752 
Q 1681 391 2138 391 
Q 2594 391 2855 752 
Q 3116 1113 3116 1747 
z
" transform="scale(0.015625)"/>
     <path id="DejaVuSans-6c" d="M 603 4863 
L 1178 4863 
L 1178 0 
L 603 0 
L 603 4863 
z
" transform="scale(0.015625)"/>
     <path id="DejaVuSans-6a" d="M 603 3500 
L 1178 3500 
L 1178 -63 
Q 1178 -731 923 -1031 
Q 669 -1331 103 -1331 
L -116 -1331 
L -116 -844 
L 38 -844 
Q 366 -844 484 -692 
Q 603 -541 603 -63 
L 603 3500 
z
M 603 4863 
L 1178 4863 
L 1178 4134 
L 603 4134 
L 603 4863 
z
" transform="scale(0.015625)"/>
     <path id="DejaVuSans-64" d="M 2906 2969 
L 2906 4863 
L 3481 4863 
L 3481 0 
L 2906 0 
L 2906 525 
Q 2725 213 2448 61 
Q 2172 -91 1784 -91 
Q 1150 -91 751 415 
Q 353 922 353 1747 
Q 353 2572 751 3078 
Q 1150 3584 1784 3584 
Q 2172 3584 2448 3432 
Q 2725 3281 2906 2969 
z
M 947 1747 
Q 947 1113 1208 752 
Q 1469 391 1925 391 
Q 2381 391 2643 752 
Q 2906 1113 2906 1747 
Q 2906 2381 2643 2742 
Q 2381 3103 1925 3103 
Q 1469 3103 1208 2742 
Q 947 2381 947 1747 
z
" transform="scale(0.015625)"/>
     <path id="DejaVuSans-6e" d="M 3513 2113 
L 3513 0 
L 2938 0 
L 2938 2094 
Q 2938 2591 2744 2837 
Q 2550 3084 2163 3084 
Q 1697 3084 1428 2787 
Q 1159 2491 1159 1978 
L 1159 0 
L 581 0 
L 581 3500 
L 1159 3500 
L 1159 2956 
Q 1366 3272 1645 3428 
Q 1925 3584 2291 3584 
Q 2894 3584 3203 3211 
Q 3513 2838 3513 2113 
z
" transform="scale(0.015625)"/>
     <path id="DejaVuSans-2c" d="M 750 794 
L 1409 794 
L 1409 256 
L 897 -744 
L 494 -744 
L 750 256 
L 750 794 
z
" transform="scale(0.015625)"/>
     <path id="DejaVuSans-62" d="M 3116 1747 
Q 3116 2381 2855 2742 
Q 2594 3103 2138 3103 
Q 1681 3103 1420 2742 
Q 1159 2381 1159 1747 
Q 1159 1113 1420 752 
Q 1681 391 2138 391 
Q 2594 391 2855 752 
Q 3116 1113 3116 1747 
z
M 1159 2969 
Q 1341 3281 1617 3432 
Q 1894 3584 2278 3584 
Q 2916 3584 3314 3078 
Q 3713 2572 3713 1747 
Q 3713 922 3314 415 
Q 2916 -91 2278 -91 
Q 1894 -91 1617 61 
Q 1341 213 1159 525 
L 1159 0 
L 581 0 
L 581 4863 
L 1159 4863 
L 1159 2969 
z
" transform="scale(0.015625)"/>
     <path id="DejaVuSans-2e" d="M 684 794 
L 1344 794 
L 1344 0 
L 684 0 
L 684 794 
z
" transform="scale(0.015625)"/>
    </defs>
    <use xlink:href="#DejaVuSans-42"/>
    <use xlink:href="#DejaVuSans-6f" transform="translate(68.603516 0)"/>
    <use xlink:href="#DejaVuSans-74" transform="translate(129.785156 0)"/>
    <use xlink:href="#DejaVuSans-68" transform="translate(168.994141 0)"/>
    <use xlink:href="#DejaVuSans-20" transform="translate(232.373047 0)"/>
    <use xlink:href="#DejaVuSans-65" transform="translate(264.160156 0)"/>
    <use xlink:href="#DejaVuSans-78" transform="translate(323.933594 0)"/>
    <use xlink:href="#DejaVuSans-61" transform="translate(383.113281 0)"/>
    <use xlink:href="#DejaVuSans-6d" transform="translate(444.392578 0)"/>
    <use xlink:href="#DejaVuSans-70" transform="translate(541.804688 0)"/>
    <use xlink:href="#DejaVuSans-6c" transform="translate(605.28125 0)"/>
    <use xlink:href="#DejaVuSans-65" transform="translate(633.064453 0)"/>
    <use xlink:href="#DejaVuSans-73" transform="translate(694.587891 0)"/>
    <use xlink:href="#DejaVuSans-20" transform="translate(746.6875 0)"/>
    <use xlink:href="#DejaVuSans-73" transform="translate(778.474609 0)"/>
    <use xlink:href="#DejaVuSans-68" transform="translate(830.574219 0)"/>
    <use xlink:href="#DejaVuSans-61" transform="translate(893.953125 0)"/>
    <use xlink:href="#DejaVuSans-72" transform="translate(955.232422 0)"/>
    <use xlink:href="#DejaVuSans-65" transform="translate(994.095703 0)"/>
    <use xlink:href="#DejaVuSans-20" transform="translate(1055.619141 0)"/>
    <use xlink:href="#DejaVuSans-74" transform="translate(1087.40625 0)"/>
    <use xlink:href="#DejaVuSans-68" transform="translate(1126.615234 0)"/>
    <use xlink:href="#DejaVuSans-65" transform="translate(1189.994141 0)"/>
    <use xlink:href="#DejaVuSans-20" transform="translate(1251.517578 0)"/>
    <use xlink:href="#DejaVuSans-73" transform="translate(1283.304688 0)"/>
    <use xlink:href="#DejaVuSans-61" transform="translate(1335.404297 0)"/>
    <use xlink:href="#DejaVuSans-6d" transform="translate(1396.683594 0)"/>
    <use xlink:href="#DejaVuSans-65" transform="translate(1494.095703 0)"/>
    <use xlink:href="#DejaVuSans-20" transform="translate(1555.619141 0)"/>
    <use xlink:href="#DejaVuSans-6d" transform="translate(1587.40625 0)"/>
    <use xlink:href="#DejaVuSans-61" transform="translate(1684.818359 0)"/>
    <use xlink:href="#DejaVuSans-6a" transform="translate(1746.097656 0)"/>
    <use xlink:href="#DejaVuSans-6f" transform="translate(1773.880859 0)"/>
    <use xlink:href="#DejaVuSans-72" transform="translate(1835.0625 0)"/>
    <use xlink:href="#DejaVuSans-20" transform="translate(1876.175781 0)"/>
    <use xlink:href="#DejaVuSans-72" transform="translate(1907.962891 0)"/>
    <use xlink:href="#DejaVuSans-61" transform="translate(1949.076172 0)"/>
    <use xlink:href="#DejaVuSans-64" transform="translate(2010.355469 0)"/>
    <use xlink:href="#DejaVuSans-69" transform="translate(2073.832031 0)"/>
    <use xlink:href="#DejaVuSans-75" transform="translate(2101.615234 0)"/>
    <use xlink:href="#DejaVuSans-73" transform="translate(2164.994141 0)"/>
    <use xlink:href="#DejaVuSans-20" transform="translate(2217.09375 0)"/>
    <use xlink:href="#DejaVuSans-61" transform="translate(2248.880859 0)"/>
    <use xlink:href="#DejaVuSans-6e" transform="translate(2310.160156 0)"/>
    <use xlink:href="#DejaVuSans-64" transform="translate(2373.539062 0)"/>
    <use xlink:href="#DejaVuSans-20" transform="translate(2437.015625 0)"/>
    <use xlink:href="#DejaVuSans-6d" transform="translate(2468.802734 0)"/>
    <use xlink:href="#DejaVuSans-69" transform="translate(2566.214844 0)"/>
    <use xlink:href="#DejaVuSans-6e" transform="translate(2593.998047 0)"/>
    <use xlink:href="#DejaVuSans-6f" transform="translate(2657.376953 0)"/>
    <use xlink:href="#DejaVuSans-72" transform="translate(2718.558594 0)"/>
    <use xlink:href="#DejaVuSans-20" transform="translate(2759.671875 0)"/>
    <use xlink:href="#DejaVuSans-72" transform="translate(2791.458984 0)"/>
    <use xlink:href="#DejaVuSans-61" transform="translate(2832.572266 0)"/>
    <use xlink:href="#DejaVuSans-64" transform="translate(2893.851562 0)"/>
    <use xlink:href="#DejaVuSans-69" transform="translate(2957.328125 0)"/>
    <use xlink:href="#DejaVuSans-75" transform="translate(2985.111328 0)"/>
    <use xlink:href="#DejaVuSans-73" transform="translate(3048.490234 0)"/>
    <use xlink:href="#DejaVuSans-2c" transform="translate(3100.589844 0)"/>
    <use xlink:href="#DejaVuSans-20" transform="translate(3132.376953 0)"/>
    <use xlink:href="#DejaVuSans-62" transform="translate(3164.164062 0)"/>
    <use xlink:href="#DejaVuSans-75" transform="translate(3227.640625 0)"/>
    <use xlink:href="#DejaVuSans-74" transform="translate(3291.019531 0)"/>
    <use xlink:href="#DejaVuSans-20" transform="translate(3330.228516 0)"/>
    <use xlink:href="#DejaVuSans-64" transform="translate(3362.015625 0)"/>
    <use xlink:href="#DejaVuSans-69" transform="translate(3425.492188 0)"/>
    <use xlink:href="#DejaVuSans-66" transform="translate(3453.275391 0)"/>
    <use xlink:href="#DejaVuSans-66" transform="translate(3488.480469 0)"/>
    <use xlink:href="#DejaVuSans-65" transform="translate(3523.685547 0)"/>
    <use xlink:href="#DejaVuSans-72" transform="translate(3585.208984 0)"/>
    <use xlink:href="#DejaVuSans-20" transform="translate(3626.322266 0)"/>
    <use xlink:href="#DejaVuSans-69" transform="translate(3658.109375 0)"/>
    <use xlink:href="#DejaVuSans-6e" transform="translate(3685.892578 0)"/>
    <use xlink:href="#DejaVuSans-20" transform="translate(3749.271484 0)"/>
    <use xlink:href="#DejaVuSans-68" transform="translate(3781.058594 0)"/>
    <use xlink:href="#DejaVuSans-61" transform="translate(3844.4375 0)"/>
    <use xlink:href="#DejaVuSans-72" transform="translate(3905.716797 0)"/>
    <use xlink:href="#DejaVuSans-6d" transform="translate(3945.080078 0)"/>
    <use xlink:href="#DejaVuSans-6f" transform="translate(4042.492188 0)"/>
    <use xlink:href="#DejaVuSans-6e" transform="translate(4103.673828 0)"/>
    <use xlink:href="#DejaVuSans-69" transform="translate(4167.052734 0)"/>
    <use xlink:href="#DejaVuSans-63" transform="translate(4194.835938 0)"/>
    <use xlink:href="#DejaVuSans-20" transform="translate(4249.816406 0)"/>
    <use xlink:href="#DejaVuSans-64" transform="translate(4281.603516 0)"/>
    <use xlink:href="#DejaVuSans-65" transform="translate(4345.080078 0)"/>
    <use xlink:href="#DejaVuSans-74" transform="translate(4406.603516 0)"/>
    <use xlink:href="#DejaVuSans-61" transform="translate(4445.8125 0)"/>
    <use xlink:href="#DejaVuSans-69" transform="translate(4507.091797 0)"/>
    <use xlink:href="#DejaVuSans-6c" transform="translate(4534.875 0)"/>
    <use xlink:href="#DejaVuSans-2e" transform="translate(4562.658203 0)"/>
   </g>
  </g>
 </g>
 <defs>
  <clipPath id="p77d5861799">
   <rect x="61.81343" y="81.6" width="134.350717" height="234.048"/>
  </clipPath>
  <clipPath id="pbcf213e7aa">
   <rect x="369.557102" y="81.6" width="134.350717" height="234.048"/>
  </clipPath>
 </defs>
</svg>
