<?xml version="1.0" encoding="utf-8" standalone="no"?>
<!DOCTYPE svg PUBLIC "-//W3C//DTD SVG 1.1//EN"
  "http://www.w3.org/Graphics/SVG/1.1/DTD/svg11.dtd">
<svg xmlns:xlink="http://www.w3.org/1999/xlink" width="851.228906pt" height="334.847625pt" viewBox="0 0 851.228906 334.847625" xmlns="http://www.w3.org/2000/svg" version="1.1">
 <metadata>
  <rdf:RDF xmlns:dc="http://purl.org/dc/elements/1.1/" xmlns:cc="http://creativecommons.org/ns#" xmlns:rdf="http://www.w3.org/1999/02/22-rdf-syntax-ns#">
   <cc:Work>
    <dc:type rdf:resource="http://purl.org/dc/dcmitype/StillImage"/>
    <dc:date>2026-03-30T15:17:37.573078</dc:date>
    <dc:format>image/svg+xml</dc:format>
    <dc:creator>
     <cc:Agent>
      <dc:title>Matplotlib v3.10.8, https://matplotlib.org/</dc:title>
     </cc:Agent>
    </dc:creator>
   </cc:Work>
  </rdf:RDF>
 </metadata>
 <defs>
  <style type="text/css">*{stroke-linejoin: round; stroke-linecap: butt}</style>
 </defs>
 <g id="figure_1">
  <g id="patch_1">
   <path d="M 0 334.847625 
L 851.228906 334.847625 
L 851.228906 0 
L 0 0 
z
" style="fill: #ffffff"/>
  </g>
  <g id="axes_1">
   <g id="patch_2">
    <path d="M 49.407188 265.396 
L 427.179687 265.396 
L 427.179687 77.568 
L 49.407188 77.568 
z
" style="fill: #d7e7f3"/>
   </g>
   <g id="line2d_1">
    <path d="M 52.89013 265.396 
L 52.89013 77.568 
" clip-path="url(#p19174bc501)" style="fill: none; stroke: #7a828a; stroke-opacity: 0.2; stroke-width: 0.8; stroke-linecap: square"/>
   </g>
   <g id="line2d_2">
    <path d="M 67.518119 265.396 
L 67.518119 77.568 
" clip-path="url(#p19174bc501)" style="fill: none; stroke: #7a828a; stroke-opacity: 0.2; stroke-width: 0.8; stroke-linecap: square"/>
   </g>
   <g id="line2d_3">
    <path d="M 92.869409 265.396 
L 92.869409 77.568 
" clip-path="url(#p19174bc501)" style="fill: none; stroke: #7a828a; stroke-opacity: 0.2; stroke-width: 0.8; stroke-linecap: square"/>
   </g>
   <g id="line2d_4">
    <path d="M 127.357152 265.396 
L 127.357152 77.568 
" clip-path="url(#p19174bc501)" style="fill: none; stroke: #7a828a; stroke-opacity: 0.2; stroke-width: 0.8; stroke-linecap: square"/>
   </g>
   <g id="line2d_5">
    <path d="M 168.815125 265.396 
L 168.815125 77.568 
" clip-path="url(#p19174bc501)" style="fill: none; stroke: #7a828a; stroke-opacity: 0.2; stroke-width: 0.8; stroke-linecap: square"/>
   </g>
   <g id="line2d_6">
    <path d="M 214.638569 265.396 
L 214.638569 77.568 
" clip-path="url(#p19174bc501)" style="fill: none; stroke: #7a828a; stroke-opacity: 0.2; stroke-width: 0.8; stroke-linecap: square"/>
   </g>
   <g id="line2d_7">
    <path d="M 261.948306 265.396 
L 261.948306 77.568 
" clip-path="url(#p19174bc501)" style="fill: none; stroke: #7a828a; stroke-opacity: 0.2; stroke-width: 0.8; stroke-linecap: square"/>
   </g>
   <g id="line2d_8">
    <path d="M 307.77175 265.396 
L 307.77175 77.568 
" clip-path="url(#p19174bc501)" style="fill: none; stroke: #7a828a; stroke-opacity: 0.2; stroke-width: 0.8; stroke-linecap: square"/>
   </g>
   <g id="line2d_9">
    <path d="M 349.229723 265.396 
L 349.229723 77.568 
" clip-path="url(#p19174bc501)" style="fill: none; stroke: #7a828a; stroke-opacity: 0.2; stroke-width: 0.8; stroke-linecap: square"/>
   </g>
   <g id="line2d_10">
    <path d="M 383.717466 265.396 
L 383.717466 77.568 
" clip-path="url(#p19174bc501)" style="fill: none; stroke: #7a828a; stroke-opacity: 0.2; stroke-width: 0.8; stroke-linecap: square"/>
   </g>
   <g id="line2d_11">
    <path d="M 409.068756 265.396 
L 409.068756 77.568 
" clip-path="url(#p19174bc501)" style="fill: none; stroke: #7a828a; stroke-opacity: 0.2; stroke-width: 0.8; stroke-linecap: square"/>
   </g>
   <g id="line2d_12">
    <path d="M 423.696745 265.396 
L 423.696745 77.568 
" clip-path="url(#p19174bc501)" style="fill: none; stroke: #7a828a; stroke-opacity: 0.2; stroke-width: 0.8; stroke-linecap: square"/>
   </g>
   <g id="matplotlib.axis_1">
    <g id="xtick_1">
     <g id="line2d_13">
      <path d="M 49.407188 265.396 
L 49.407188 77.568 
" clip-path="url(#p19174bc501)" style="fill: none; stroke-dasharray: 2.96,1.28; stroke-dashoffset: 0; stroke: #b0b0b0; stroke-opacity: 0.15; stroke-width: 0.8"/>
     </g>
     <g id="line2d_14">
      <defs>
       <path id="mbed71c6a86" d="M 0 0 
L 0 3.5 
" style="stroke: #000000; stroke-width: 0.8"/>
      </defs>
      <g>
       <use xlink:href="#mbed71c6a86" x="49.407188" y="265.396" style="stroke: #000000; stroke-width: 0.8"/>
      </g>
     </g>
     <g id="text_1">
      <!-- 0.0 -->
      <g transform="translate(40.660469 282.854281) scale(0.11 -0.11)">
       <defs>
        <path id="DejaVuSans-30" d="M 2034 4250 
Q 1547 4250 1301 3770 
Q 1056 3291 1056 2328 
Q 1056 1369 1301 889 
Q 1547 409 2034 409 
Q 2525 409 2770 889 
Q 3016 1369 3016 2328 
Q 3016 3291 2770 3770 
Q 2525 4250 2034 4250 
z
M 2034 4750 
Q 2819 4750 3233 4129 
Q 3647 3509 3647 2328 
Q 3647 1150 3233 529 
Q 2819 -91 2034 -91 
Q 1250 -91 836 529 
Q 422 1150 422 2328 
Q 422 3509 836 4129 
Q 1250 4750 2034 4750 
z
" transform="scale(0.015625)"/>
        <path id="DejaVuSans-2e" d="M 684 794 
L 1344 794 
L 1344 0 
L 684 0 
L 684 794 
z
" transform="scale(0.015625)"/>
       </defs>
       <use xlink:href="#DejaVuSans-30"/>
       <use xlink:href="#DejaVuSans-2e" transform="translate(63.623047 0)"/>
       <use xlink:href="#DejaVuSans-30" transform="translate(95.410156 0)"/>
      </g>
     </g>
    </g>
    <g id="xtick_2">
     <g id="line2d_15">
      <path d="M 124.961687 265.396 
L 124.961687 77.568 
" clip-path="url(#p19174bc501)" style="fill: none; stroke-dasharray: 2.96,1.28; stroke-dashoffset: 0; stroke: #b0b0b0; stroke-opacity: 0.15; stroke-width: 0.8"/>
     </g>
     <g id="line2d_16">
      <g>
       <use xlink:href="#mbed71c6a86" x="124.961687" y="265.396" style="stroke: #000000; stroke-width: 0.8"/>
      </g>
     </g>
     <g id="text_2">
      <!-- 0.2 -->
      <g transform="translate(116.214969 282.854281) scale(0.11 -0.11)">
       <defs>
        <path id="DejaVuSans-32" d="M 1228 531 
L 3431 531 
L 3431 0 
L 469 0 
L 469 531 
Q 828 903 1448 1529 
Q 2069 2156 2228 2338 
Q 2531 2678 2651 2914 
Q 2772 3150 2772 3378 
Q 2772 3750 2511 3984 
Q 2250 4219 1831 4219 
Q 1534 4219 1204 4116 
Q 875 4013 500 3803 
L 500 4441 
Q 881 4594 1212 4672 
Q 1544 4750 1819 4750 
Q 2544 4750 2975 4387 
Q 3406 4025 3406 3419 
Q 3406 3131 3298 2873 
Q 3191 2616 2906 2266 
Q 2828 2175 2409 1742 
Q 1991 1309 1228 531 
z
" transform="scale(0.015625)"/>
       </defs>
       <use xlink:href="#DejaVuSans-30"/>
       <use xlink:href="#DejaVuSans-2e" transform="translate(63.623047 0)"/>
       <use xlink:href="#DejaVuSans-32" transform="translate(95.410156 0)"/>
      </g>
     </g>
    </g>
    <g id="xtick_3">
     <g id="line2d_17">
      <path d="M 200.516188 265.396 
L 200.516188 77.568 
" clip-path="url(#p19174bc501)" style="fill: none; stroke-dasharray: 2.96,1.28; stroke-dashoffset: 0; stroke: #b0b0b0; stroke-opacity: 0.15; stroke-width: 0.8"/>
     </g>
     <g id="line2d_18">
      <g>
       <use xlink:href="#mbed71c6a86" x="200.516188" y="265.396" style="stroke: #000000; stroke-width: 0.8"/>
      </g>
     </g>
     <g id="text_3">
      <!-- 0.4 -->
      <g transform="translate(191.769469 282.854281) scale(0.11 -0.11)">
       <defs>
        <path id="DejaVuSans-34" d="M 2419 4116 
L 825 1625 
L 2419 1625 
L 2419 4116 
z
M 2253 4666 
L 3047 4666 
L 3047 1625 
L 3713 1625 
L 3713 1100 
L 3047 1100 
L 3047 0 
L 2419 0 
L 2419 1100 
L 313 1100 
L 313 1709 
L 2253 4666 
z
" transform="scale(0.015625)"/>
       </defs>
       <use xlink:href="#DejaVuSans-30"/>
       <use xlink:href="#DejaVuSans-2e" transform="translate(63.623047 0)"/>
       <use xlink:href="#DejaVuSans-34" transform="translate(95.410156 0)"/>
      </g>
     </g>
    </g>
    <g id="xtick_4">
     <g id="line2d_19">
      <path d="M 276.070688 265.396 
L 276.070688 77.568 
" clip-path="url(#p19174bc501)" style="fill: none; stroke-dasharray: 2.96,1.28; stroke-dashoffset: 0; stroke: #b0b0b0; stroke-opacity: 0.15; stroke-width: 0.8"/>
     </g>
     <g id="line2d_20">
      <g>
       <use xlink:href="#mbed71c6a86" x="276.070688" y="265.396" style="stroke: #000000; stroke-width: 0.8"/>
      </g>
     </g>
     <g id="text_4">
      <!-- 0.6 -->
      <g transform="translate(267.323969 282.854281) scale(0.11 -0.11)">
       <defs>
        <path id="DejaVuSans-36" d="M 2113 2584 
Q 1688 2584 1439 2293 
Q 1191 2003 1191 1497 
Q 1191 994 1439 701 
Q 1688 409 2113 409 
Q 2538 409 2786 701 
Q 3034 994 3034 1497 
Q 3034 2003 2786 2293 
Q 2538 2584 2113 2584 
z
M 3366 4563 
L 3366 3988 
Q 3128 4100 2886 4159 
Q 2644 4219 2406 4219 
Q 1781 4219 1451 3797 
Q 1122 3375 1075 2522 
Q 1259 2794 1537 2939 
Q 1816 3084 2150 3084 
Q 2853 3084 3261 2657 
Q 3669 2231 3669 1497 
Q 3669 778 3244 343 
Q 2819 -91 2113 -91 
Q 1303 -91 875 529 
Q 447 1150 447 2328 
Q 447 3434 972 4092 
Q 1497 4750 2381 4750 
Q 2619 4750 2861 4703 
Q 3103 4656 3366 4563 
z
" transform="scale(0.015625)"/>
       </defs>
       <use xlink:href="#DejaVuSans-30"/>
       <use xlink:href="#DejaVuSans-2e" transform="translate(63.623047 0)"/>
       <use xlink:href="#DejaVuSans-36" transform="translate(95.410156 0)"/>
      </g>
     </g>
    </g>
    <g id="xtick_5">
     <g id="line2d_21">
      <path d="M 351.625187 265.396 
L 351.625187 77.568 
" clip-path="url(#p19174bc501)" style="fill: none; stroke-dasharray: 2.96,1.28; stroke-dashoffset: 0; stroke: #b0b0b0; stroke-opacity: 0.15; stroke-width: 0.8"/>
     </g>
     <g id="line2d_22">
      <g>
       <use xlink:href="#mbed71c6a86" x="351.625187" y="265.396" style="stroke: #000000; stroke-width: 0.8"/>
      </g>
     </g>
     <g id="text_5">
      <!-- 0.8 -->
      <g transform="translate(342.878469 282.854281) scale(0.11 -0.11)">
       <defs>
        <path id="DejaVuSans-38" d="M 2034 2216 
Q 1584 2216 1326 1975 
Q 1069 1734 1069 1313 
Q 1069 891 1326 650 
Q 1584 409 2034 409 
Q 2484 409 2743 651 
Q 3003 894 3003 1313 
Q 3003 1734 2745 1975 
Q 2488 2216 2034 2216 
z
M 1403 2484 
Q 997 2584 770 2862 
Q 544 3141 544 3541 
Q 544 4100 942 4425 
Q 1341 4750 2034 4750 
Q 2731 4750 3128 4425 
Q 3525 4100 3525 3541 
Q 3525 3141 3298 2862 
Q 3072 2584 2669 2484 
Q 3125 2378 3379 2068 
Q 3634 1759 3634 1313 
Q 3634 634 3220 271 
Q 2806 -91 2034 -91 
Q 1263 -91 848 271 
Q 434 634 434 1313 
Q 434 1759 690 2068 
Q 947 2378 1403 2484 
z
M 1172 3481 
Q 1172 3119 1398 2916 
Q 1625 2713 2034 2713 
Q 2441 2713 2670 2916 
Q 2900 3119 2900 3481 
Q 2900 3844 2670 4047 
Q 2441 4250 2034 4250 
Q 1625 4250 1398 4047 
Q 1172 3844 1172 3481 
z
" transform="scale(0.015625)"/>
       </defs>
       <use xlink:href="#DejaVuSans-30"/>
       <use xlink:href="#DejaVuSans-2e" transform="translate(63.623047 0)"/>
       <use xlink:href="#DejaVuSans-38" transform="translate(95.410156 0)"/>
      </g>
     </g>
    </g>
    <g id="xtick_6">
     <g id="line2d_23">
      <path d="M 427.179687 265.396 
L 427.179687 77.568 
" clip-path="url(#p19174bc501)" style="fill: none; stroke-dasharray: 2.96,1.28; stroke-dashoffset: 0; stroke: #b0b0b0; stroke-opacity: 0.15; stroke-width: 0.8"/>
     </g>
     <g id="line2d_24">
      <g>
       <use xlink:href="#mbed71c6a86" x="427.179687" y="265.396" style="stroke: #000000; stroke-width: 0.8"/>
      </g>
     </g>
     <g id="text_6">
      <!-- 1.0 -->
      <g transform="translate(418.432969 282.854281) scale(0.11 -0.11)">
       <defs>
        <path id="DejaVuSans-31" d="M 794 531 
L 1825 531 
L 1825 4091 
L 703 3866 
L 703 4441 
L 1819 4666 
L 2450 4666 
L 2450 531 
L 3481 531 
L 3481 0 
L 794 0 
L 794 531 
z
" transform="scale(0.015625)"/>
       </defs>
       <use xlink:href="#DejaVuSans-31"/>
       <use xlink:href="#DejaVuSans-2e" transform="translate(63.623047 0)"/>
       <use xlink:href="#DejaVuSans-30" transform="translate(95.410156 0)"/>
      </g>
     </g>
    </g>
    <g id="text_7">
     <!-- normalized radius -->
     <g transform="translate(184.49875 298.260062) scale(0.12 -0.12)">
      <defs>
       <path id="DejaVuSans-6e" d="M 3513 2113 
L 3513 0 
L 2938 0 
L 2938 2094 
Q 2938 2591 2744 2837 
Q 2550 3084 2163 3084 
Q 1697 3084 1428 2787 
Q 1159 2491 1159 1978 
L 1159 0 
L 581 0 
L 581 3500 
L 1159 3500 
L 1159 2956 
Q 1366 3272 1645 3428 
Q 1925 3584 2291 3584 
Q 2894 3584 3203 3211 
Q 3513 2838 3513 2113 
z
" transform="scale(0.015625)"/>
       <path id="DejaVuSans-6f" d="M 1959 3097 
Q 1497 3097 1228 2736 
Q 959 2375 959 1747 
Q 959 1119 1226 758 
Q 1494 397 1959 397 
Q 2419 397 2687 759 
Q 2956 1122 2956 1747 
Q 2956 2369 2687 2733 
Q 2419 3097 1959 3097 
z
M 1959 3584 
Q 2709 3584 3137 3096 
Q 3566 2609 3566 1747 
Q 3566 888 3137 398 
Q 2709 -91 1959 -91 
Q 1206 -91 779 398 
Q 353 888 353 1747 
Q 353 2609 779 3096 
Q 1206 3584 1959 3584 
z
" transform="scale(0.015625)"/>
       <path id="DejaVuSans-72" d="M 2631 2963 
Q 2534 3019 2420 3045 
Q 2306 3072 2169 3072 
Q 1681 3072 1420 2755 
Q 1159 2438 1159 1844 
L 1159 0 
L 581 0 
L 581 3500 
L 1159 3500 
L 1159 2956 
Q 1341 3275 1631 3429 
Q 1922 3584 2338 3584 
Q 2397 3584 2469 3576 
Q 2541 3569 2628 3553 
L 2631 2963 
z
" transform="scale(0.015625)"/>
       <path id="DejaVuSans-6d" d="M 3328 2828 
Q 3544 3216 3844 3400 
Q 4144 3584 4550 3584 
Q 5097 3584 5394 3201 
Q 5691 2819 5691 2113 
L 5691 0 
L 5113 0 
L 5113 2094 
Q 5113 2597 4934 2840 
Q 4756 3084 4391 3084 
Q 3944 3084 3684 2787 
Q 3425 2491 3425 1978 
L 3425 0 
L 2847 0 
L 2847 2094 
Q 2847 2600 2669 2842 
Q 2491 3084 2119 3084 
Q 1678 3084 1418 2786 
Q 1159 2488 1159 1978 
L 1159 0 
L 581 0 
L 581 3500 
L 1159 3500 
L 1159 2956 
Q 1356 3278 1631 3431 
Q 1906 3584 2284 3584 
Q 2666 3584 2933 3390 
Q 3200 3197 3328 2828 
z
" transform="scale(0.015625)"/>
       <path id="DejaVuSans-61" d="M 2194 1759 
Q 1497 1759 1228 1600 
Q 959 1441 959 1056 
Q 959 750 1161 570 
Q 1363 391 1709 391 
Q 2188 391 2477 730 
Q 2766 1069 2766 1631 
L 2766 1759 
L 2194 1759 
z
M 3341 1997 
L 3341 0 
L 2766 0 
L 2766 531 
Q 2569 213 2275 61 
Q 1981 -91 1556 -91 
Q 1019 -91 701 211 
Q 384 513 384 1019 
Q 384 1609 779 1909 
Q 1175 2209 1959 2209 
L 2766 2209 
L 2766 2266 
Q 2766 2663 2505 2880 
Q 2244 3097 1772 3097 
Q 1472 3097 1187 3025 
Q 903 2953 641 2809 
L 641 3341 
Q 956 3463 1253 3523 
Q 1550 3584 1831 3584 
Q 2591 3584 2966 3190 
Q 3341 2797 3341 1997 
z
" transform="scale(0.015625)"/>
       <path id="DejaVuSans-6c" d="M 603 4863 
L 1178 4863 
L 1178 0 
L 603 0 
L 603 4863 
z
" transform="scale(0.015625)"/>
       <path id="DejaVuSans-69" d="M 603 3500 
L 1178 3500 
L 1178 0 
L 603 0 
L 603 3500 
z
M 603 4863 
L 1178 4863 
L 1178 4134 
L 603 4134 
L 603 4863 
z
" transform="scale(0.015625)"/>
       <path id="DejaVuSans-7a" d="M 353 3500 
L 3084 3500 
L 3084 2975 
L 922 459 
L 3084 459 
L 3084 0 
L 275 0 
L 275 525 
L 2438 3041 
L 353 3041 
L 353 3500 
z
" transform="scale(0.015625)"/>
       <path id="DejaVuSans-65" d="M 3597 1894 
L 3597 1613 
L 953 1613 
Q 991 1019 1311 708 
Q 1631 397 2203 397 
Q 2534 397 2845 478 
Q 3156 559 3463 722 
L 3463 178 
Q 3153 47 2828 -22 
Q 2503 -91 2169 -91 
Q 1331 -91 842 396 
Q 353 884 353 1716 
Q 353 2575 817 3079 
Q 1281 3584 2069 3584 
Q 2775 3584 3186 3129 
Q 3597 2675 3597 1894 
z
M 3022 2063 
Q 3016 2534 2758 2815 
Q 2500 3097 2075 3097 
Q 1594 3097 1305 2825 
Q 1016 2553 972 2059 
L 3022 2063 
z
" transform="scale(0.015625)"/>
       <path id="DejaVuSans-64" d="M 2906 2969 
L 2906 4863 
L 3481 4863 
L 3481 0 
L 2906 0 
L 2906 525 
Q 2725 213 2448 61 
Q 2172 -91 1784 -91 
Q 1150 -91 751 415 
Q 353 922 353 1747 
Q 353 2572 751 3078 
Q 1150 3584 1784 3584 
Q 2172 3584 2448 3432 
Q 2725 3281 2906 2969 
z
M 947 1747 
Q 947 1113 1208 752 
Q 1469 391 1925 391 
Q 2381 391 2643 752 
Q 2906 1113 2906 1747 
Q 2906 2381 2643 2742 
Q 2381 3103 1925 3103 
Q 1469 3103 1208 2742 
Q 947 2381 947 1747 
z
" transform="scale(0.015625)"/>
       <path id="DejaVuSans-20" transform="scale(0.015625)"/>
       <path id="DejaVuSans-75" d="M 544 1381 
L 544 3500 
L 1119 3500 
L 1119 1403 
Q 1119 906 1312 657 
Q 1506 409 1894 409 
Q 2359 409 2629 706 
Q 2900 1003 2900 1516 
L 2900 3500 
L 3475 3500 
L 3475 0 
L 2900 0 
L 2900 538 
Q 2691 219 2414 64 
Q 2138 -91 1772 -91 
Q 1169 -91 856 284 
Q 544 659 544 1381 
z
M 1991 3584 
L 1991 3584 
z
" transform="scale(0.015625)"/>
       <path id="DejaVuSans-73" d="M 2834 3397 
L 2834 2853 
Q 2591 2978 2328 3040 
Q 2066 3103 1784 3103 
Q 1356 3103 1142 2972 
Q 928 2841 928 2578 
Q 928 2378 1081 2264 
Q 1234 2150 1697 2047 
L 1894 2003 
Q 2506 1872 2764 1633 
Q 3022 1394 3022 966 
Q 3022 478 2636 193 
Q 2250 -91 1575 -91 
Q 1294 -91 989 -36 
Q 684 19 347 128 
L 347 722 
Q 666 556 975 473 
Q 1284 391 1588 391 
Q 1994 391 2212 530 
Q 2431 669 2431 922 
Q 2431 1156 2273 1281 
Q 2116 1406 1581 1522 
L 1381 1569 
Q 847 1681 609 1914 
Q 372 2147 372 2553 
Q 372 3047 722 3315 
Q 1072 3584 1716 3584 
Q 2034 3584 2315 3537 
Q 2597 3491 2834 3397 
z
" transform="scale(0.015625)"/>
      </defs>
      <use xlink:href="#DejaVuSans-6e"/>
      <use xlink:href="#DejaVuSans-6f" transform="translate(63.378906 0)"/>
      <use xlink:href="#DejaVuSans-72" transform="translate(124.560547 0)"/>
      <use xlink:href="#DejaVuSans-6d" transform="translate(163.923828 0)"/>
      <use xlink:href="#DejaVuSans-61" transform="translate(261.335938 0)"/>
      <use xlink:href="#DejaVuSans-6c" transform="translate(322.615234 0)"/>
      <use xlink:href="#DejaVuSans-69" transform="translate(350.398438 0)"/>
      <use xlink:href="#DejaVuSans-7a" transform="translate(378.181641 0)"/>
      <use xlink:href="#DejaVuSans-65" transform="translate(430.671875 0)"/>
      <use xlink:href="#DejaVuSans-64" transform="translate(492.195312 0)"/>
      <use xlink:href="#DejaVuSans-20" transform="translate(555.671875 0)"/>
      <use xlink:href="#DejaVuSans-72" transform="translate(587.458984 0)"/>
      <use xlink:href="#DejaVuSans-61" transform="translate(628.572266 0)"/>
      <use xlink:href="#DejaVuSans-64" transform="translate(689.851562 0)"/>
      <use xlink:href="#DejaVuSans-69" transform="translate(753.328125 0)"/>
      <use xlink:href="#DejaVuSans-75" transform="translate(781.111328 0)"/>
      <use xlink:href="#DejaVuSans-73" transform="translate(844.490234 0)"/>
     </g>
    </g>
   </g>
   <g id="matplotlib.axis_2">
    <g id="ytick_1">
     <g id="line2d_25">
      <path d="M 49.407188 246.6132 
L 427.179687 246.6132 
" clip-path="url(#p19174bc501)" style="fill: none; stroke-dasharray: 2.96,1.28; stroke-dashoffset: 0; stroke: #b0b0b0; stroke-opacity: 0.15; stroke-width: 0.8"/>
     </g>
     <g id="line2d_26">
      <defs>
       <path id="m5ed3a0402c" d="M 0 0 
L -3.5 0 
" style="stroke: #000000; stroke-width: 0.8"/>
      </defs>
      <g>
       <use xlink:href="#m5ed3a0402c" x="49.407188" y="246.6132" style="stroke: #000000; stroke-width: 0.8"/>
      </g>
     </g>
     <g id="text_8">
      <!-- 0.0 -->
      <g transform="translate(22.81375 250.792341) scale(0.11 -0.11)">
       <use xlink:href="#DejaVuSans-30"/>
       <use xlink:href="#DejaVuSans-2e" transform="translate(63.623047 0)"/>
       <use xlink:href="#DejaVuSans-30" transform="translate(95.410156 0)"/>
      </g>
     </g>
    </g>
    <g id="ytick_2">
     <g id="line2d_27">
      <path d="M 49.407188 215.308533 
L 427.179687 215.308533 
" clip-path="url(#p19174bc501)" style="fill: none; stroke-dasharray: 2.96,1.28; stroke-dashoffset: 0; stroke: #b0b0b0; stroke-opacity: 0.15; stroke-width: 0.8"/>
     </g>
     <g id="line2d_28">
      <g>
       <use xlink:href="#m5ed3a0402c" x="49.407188" y="215.308533" style="stroke: #000000; stroke-width: 0.8"/>
      </g>
     </g>
     <g id="text_9">
      <!-- 0.2 -->
      <g transform="translate(22.81375 219.487674) scale(0.11 -0.11)">
       <use xlink:href="#DejaVuSans-30"/>
       <use xlink:href="#DejaVuSans-2e" transform="translate(63.623047 0)"/>
       <use xlink:href="#DejaVuSans-32" transform="translate(95.410156 0)"/>
      </g>
     </g>
    </g>
    <g id="ytick_3">
     <g id="line2d_29">
      <path d="M 49.407188 184.003867 
L 427.179687 184.003867 
" clip-path="url(#p19174bc501)" style="fill: none; stroke-dasharray: 2.96,1.28; stroke-dashoffset: 0; stroke: #b0b0b0; stroke-opacity: 0.15; stroke-width: 0.8"/>
     </g>
     <g id="line2d_30">
      <g>
       <use xlink:href="#m5ed3a0402c" x="49.407188" y="184.003867" style="stroke: #000000; stroke-width: 0.8"/>
      </g>
     </g>
     <g id="text_10">
      <!-- 0.4 -->
      <g transform="translate(22.81375 188.183007) scale(0.11 -0.11)">
       <use xlink:href="#DejaVuSans-30"/>
       <use xlink:href="#DejaVuSans-2e" transform="translate(63.623047 0)"/>
       <use xlink:href="#DejaVuSans-34" transform="translate(95.410156 0)"/>
      </g>
     </g>
    </g>
    <g id="ytick_4">
     <g id="line2d_31">
      <path d="M 49.407188 152.6992 
L 427.179687 152.6992 
" clip-path="url(#p19174bc501)" style="fill: none; stroke-dasharray: 2.96,1.28; stroke-dashoffset: 0; stroke: #b0b0b0; stroke-opacity: 0.15; stroke-width: 0.8"/>
     </g>
     <g id="line2d_32">
      <g>
       <use xlink:href="#m5ed3a0402c" x="49.407188" y="152.6992" style="stroke: #000000; stroke-width: 0.8"/>
      </g>
     </g>
     <g id="text_11">
      <!-- 0.6 -->
      <g transform="translate(22.81375 156.878341) scale(0.11 -0.11)">
       <use xlink:href="#DejaVuSans-30"/>
       <use xlink:href="#DejaVuSans-2e" transform="translate(63.623047 0)"/>
       <use xlink:href="#DejaVuSans-36" transform="translate(95.410156 0)"/>
      </g>
     </g>
    </g>
    <g id="ytick_5">
     <g id="line2d_33">
      <path d="M 49.407188 121.394533 
L 427.179687 121.394533 
" clip-path="url(#p19174bc501)" style="fill: none; stroke-dasharray: 2.96,1.28; stroke-dashoffset: 0; stroke: #b0b0b0; stroke-opacity: 0.15; stroke-width: 0.8"/>
     </g>
     <g id="line2d_34">
      <g>
       <use xlink:href="#m5ed3a0402c" x="49.407188" y="121.394533" style="stroke: #000000; stroke-width: 0.8"/>
      </g>
     </g>
     <g id="text_12">
      <!-- 0.8 -->
      <g transform="translate(22.81375 125.573674) scale(0.11 -0.11)">
       <use xlink:href="#DejaVuSans-30"/>
       <use xlink:href="#DejaVuSans-2e" transform="translate(63.623047 0)"/>
       <use xlink:href="#DejaVuSans-38" transform="translate(95.410156 0)"/>
      </g>
     </g>
    </g>
    <g id="ytick_6">
     <g id="line2d_35">
      <path d="M 49.407188 90.089867 
L 427.179687 90.089867 
" clip-path="url(#p19174bc501)" style="fill: none; stroke-dasharray: 2.96,1.28; stroke-dashoffset: 0; stroke: #b0b0b0; stroke-opacity: 0.15; stroke-width: 0.8"/>
     </g>
     <g id="line2d_36">
      <g>
       <use xlink:href="#m5ed3a0402c" x="49.407188" y="90.089867" style="stroke: #000000; stroke-width: 0.8"/>
      </g>
     </g>
     <g id="text_13">
      <!-- 1.0 -->
      <g transform="translate(22.81375 94.269007) scale(0.11 -0.11)">
       <use xlink:href="#DejaVuSans-31"/>
       <use xlink:href="#DejaVuSans-2e" transform="translate(63.623047 0)"/>
       <use xlink:href="#DejaVuSans-30" transform="translate(95.410156 0)"/>
      </g>
     </g>
    </g>
    <g id="text_14">
     <!-- normalized source magnitude -->
     <g transform="translate(16.318125 261.01325) rotate(-90) scale(0.12 -0.12)">
      <defs>
       <path id="DejaVuSans-63" d="M 3122 3366 
L 3122 2828 
Q 2878 2963 2633 3030 
Q 2388 3097 2138 3097 
Q 1578 3097 1268 2742 
Q 959 2388 959 1747 
Q 959 1106 1268 751 
Q 1578 397 2138 397 
Q 2388 397 2633 464 
Q 2878 531 3122 666 
L 3122 134 
Q 2881 22 2623 -34 
Q 2366 -91 2075 -91 
Q 1284 -91 818 406 
Q 353 903 353 1747 
Q 353 2603 823 3093 
Q 1294 3584 2113 3584 
Q 2378 3584 2631 3529 
Q 2884 3475 3122 3366 
z
" transform="scale(0.015625)"/>
       <path id="DejaVuSans-67" d="M 2906 1791 
Q 2906 2416 2648 2759 
Q 2391 3103 1925 3103 
Q 1463 3103 1205 2759 
Q 947 2416 947 1791 
Q 947 1169 1205 825 
Q 1463 481 1925 481 
Q 2391 481 2648 825 
Q 2906 1169 2906 1791 
z
M 3481 434 
Q 3481 -459 3084 -895 
Q 2688 -1331 1869 -1331 
Q 1566 -1331 1297 -1286 
Q 1028 -1241 775 -1147 
L 775 -588 
Q 1028 -725 1275 -790 
Q 1522 -856 1778 -856 
Q 2344 -856 2625 -561 
Q 2906 -266 2906 331 
L 2906 616 
Q 2728 306 2450 153 
Q 2172 0 1784 0 
Q 1141 0 747 490 
Q 353 981 353 1791 
Q 353 2603 747 3093 
Q 1141 3584 1784 3584 
Q 2172 3584 2450 3431 
Q 2728 3278 2906 2969 
L 2906 3500 
L 3481 3500 
L 3481 434 
z
" transform="scale(0.015625)"/>
       <path id="DejaVuSans-74" d="M 1172 4494 
L 1172 3500 
L 2356 3500 
L 2356 3053 
L 1172 3053 
L 1172 1153 
Q 1172 725 1289 603 
Q 1406 481 1766 481 
L 2356 481 
L 2356 0 
L 1766 0 
Q 1100 0 847 248 
Q 594 497 594 1153 
L 594 3053 
L 172 3053 
L 172 3500 
L 594 3500 
L 594 4494 
L 1172 4494 
z
" transform="scale(0.015625)"/>
      </defs>
      <use xlink:href="#DejaVuSans-6e"/>
      <use xlink:href="#DejaVuSans-6f" transform="translate(63.378906 0)"/>
      <use xlink:href="#DejaVuSans-72" transform="translate(124.560547 0)"/>
      <use xlink:href="#DejaVuSans-6d" transform="translate(163.923828 0)"/>
      <use xlink:href="#DejaVuSans-61" transform="translate(261.335938 0)"/>
      <use xlink:href="#DejaVuSans-6c" transform="translate(322.615234 0)"/>
      <use xlink:href="#DejaVuSans-69" transform="translate(350.398438 0)"/>
      <use xlink:href="#DejaVuSans-7a" transform="translate(378.181641 0)"/>
      <use xlink:href="#DejaVuSans-65" transform="translate(430.671875 0)"/>
      <use xlink:href="#DejaVuSans-64" transform="translate(492.195312 0)"/>
      <use xlink:href="#DejaVuSans-20" transform="translate(555.671875 0)"/>
      <use xlink:href="#DejaVuSans-73" transform="translate(587.458984 0)"/>
      <use xlink:href="#DejaVuSans-6f" transform="translate(639.558594 0)"/>
      <use xlink:href="#DejaVuSans-75" transform="translate(700.740234 0)"/>
      <use xlink:href="#DejaVuSans-72" transform="translate(764.119141 0)"/>
      <use xlink:href="#DejaVuSans-63" transform="translate(802.982422 0)"/>
      <use xlink:href="#DejaVuSans-65" transform="translate(857.962891 0)"/>
      <use xlink:href="#DejaVuSans-20" transform="translate(919.486328 0)"/>
      <use xlink:href="#DejaVuSans-6d" transform="translate(951.273438 0)"/>
      <use xlink:href="#DejaVuSans-61" transform="translate(1048.685547 0)"/>
      <use xlink:href="#DejaVuSans-67" transform="translate(1109.964844 0)"/>
      <use xlink:href="#DejaVuSans-6e" transform="translate(1173.441406 0)"/>
      <use xlink:href="#DejaVuSans-69" transform="translate(1236.820312 0)"/>
      <use xlink:href="#DejaVuSans-74" transform="translate(1264.603516 0)"/>
      <use xlink:href="#DejaVuSans-75" transform="translate(1303.8125 0)"/>
      <use xlink:href="#DejaVuSans-64" transform="translate(1367.191406 0)"/>
      <use xlink:href="#DejaVuSans-65" transform="translate(1430.667969 0)"/>
     </g>
    </g>
   </g>
   <g id="line2d_37">
    <path d="M 49.407188 246.6132 
L 140.338729 190.879046 
L 179.520612 167.120335 
L 206.874003 150.785597 
L 227.573866 138.676345 
L 243.838044 129.405998 
L 257.884379 121.654985 
L 269.712872 115.383696 
L 280.062804 110.153732 
L 288.934174 105.918297 
L 297.066263 102.288684 
L 304.459071 99.248046 
L 311.112598 96.767536 
L 317.026845 94.805713 
L 322.201811 93.309168 
L 327.376777 92.050701 
L 331.812461 91.189032 
L 336.248146 90.555501 
L 339.944551 90.223519 
L 343.640955 90.090648 
L 347.337359 90.178981 
L 351.033763 90.513245 
L 353.990886 90.976225 
L 356.948009 91.629956 
L 359.905133 92.491642 
L 362.862256 93.580144 
L 365.819379 94.916153 
L 368.776503 96.522374 
L 371.733626 98.423738 
L 374.690749 100.647626 
L 377.647872 103.224133 
L 380.604996 106.186343 
L 382.822838 108.682878 
L 385.040681 111.433454 
L 387.258523 114.456004 
L 389.476366 117.769805 
L 391.694208 121.395589 
L 393.912051 125.355652 
L 396.129893 129.673983 
L 398.347735 134.376397 
L 400.565578 139.490684 
L 402.78342 145.046764 
L 405.001263 151.076864 
L 407.219105 157.615701 
L 409.436948 164.700687 
L 411.65479 172.372146 
L 413.872633 180.673557 
L 416.090475 189.651808 
L 418.308318 199.357484 
L 420.52616 209.845164 
L 422.744003 221.17376 
L 424.961845 233.406876 
L 427.179687 246.6132 
L 427.179687 246.6132 
" clip-path="url(#p19174bc501)" style="fill: none; stroke: #2f5d7e; stroke-width: 2.2; stroke-linecap: square"/>
   </g>
   <g id="line2d_38">
    <path d="M 49.407188 246.6132 
L 127.031674 226.407965 
L 163.995715 217.019074 
L 191.349105 210.290087 
L 213.52753 205.05509 
L 232.009551 200.914488 
L 247.534448 197.652053 
L 261.580783 194.925879 
L 273.409277 192.843687 
L 284.498489 191.11443 
L 294.10914 189.829777 
L 302.980509 188.857073 
L 311.112598 188.1791 
L 318.505407 187.771024 
L 325.898215 187.594082 
L 332.551742 187.663243 
L 338.465989 187.93286 
L 344.380235 188.425006 
L 349.555201 189.061112 
L 354.730167 189.912197 
L 359.905133 191.003278 
L 364.340818 192.150762 
L 368.776503 193.515013 
L 373.212187 195.117989 
L 377.647872 196.984053 
L 381.344277 198.759495 
L 385.040681 200.753585 
L 388.737085 202.985129 
L 392.433489 205.474675 
L 396.129893 208.244679 
L 399.826297 211.319698 
L 403.522701 214.726601 
L 407.219105 218.494791 
L 410.915509 222.656468 
L 413.872633 226.292717 
L 416.829756 230.222917 
L 419.786879 234.468176 
L 422.744003 239.05122 
L 425.701126 243.996531 
L 427.179687 246.6132 
L 427.179687 246.6132 
" clip-path="url(#p19174bc501)" style="fill: none; stroke: #d97941; stroke-width: 2.2; stroke-linecap: square"/>
   </g>
   <g id="patch_3">
    <path d="M 49.407188 265.396 
L 49.407188 77.568 
" style="fill: none; stroke: #000000; stroke-width: 0.8; stroke-linejoin: miter; stroke-linecap: square"/>
   </g>
   <g id="patch_4">
    <path d="M 427.179687 265.396 
L 427.179687 77.568 
" style="fill: none; stroke: #000000; stroke-width: 0.8; stroke-linejoin: miter; stroke-linecap: square"/>
   </g>
   <g id="patch_5">
    <path d="M 49.407188 265.396 
L 427.179687 265.396 
" style="fill: none; stroke: #000000; stroke-width: 0.8; stroke-linejoin: miter; stroke-linecap: square"/>
   </g>
   <g id="patch_6">
    <path d="M 49.407188 77.568 
L 427.179687 77.568 
" style="fill: none; stroke: #000000; stroke-width: 0.8; stroke-linejoin: miter; stroke-linecap: square"/>
   </g>
   <g id="PathCollection_1">
    <defs>
     <path id="m7ec1a589bd" d="M 0 2.12132 
C 0.562581 2.12132 1.102195 1.897805 1.5 1.5 
C 1.897805 1.102195 2.12132 0.562581 2.12132 0 
C 2.12132 -0.562581 1.897805 -1.102195 1.5 -1.5 
C 1.102195 -1.897805 0.562581 -2.12132 0 -2.12132 
C -0.562581 -2.12132 -1.102195 -1.897805 -1.5 -1.5 
C -1.897805 -1.102195 -2.12132 -0.562581 -2.12132 0 
C -2.12132 0.562581 -1.897805 1.102195 -1.5 1.5 
C -1.102195 1.897805 -0.562581 2.12132 0 2.12132 
z
" style="stroke: #5e8b5a; stroke-width: 0.24"/>
    </defs>
    <g clip-path="url(#p19174bc501)">
     <use xlink:href="#m7ec1a589bd" x="52.89013" y="257.569833" style="fill: #5e8b5a; stroke: #5e8b5a; stroke-width: 0.24"/>
     <use xlink:href="#m7ec1a589bd" x="67.518119" y="257.569833" style="fill: #5e8b5a; stroke: #5e8b5a; stroke-width: 0.24"/>
     <use xlink:href="#m7ec1a589bd" x="92.869409" y="257.569833" style="fill: #5e8b5a; stroke: #5e8b5a; stroke-width: 0.24"/>
     <use xlink:href="#m7ec1a589bd" x="127.357152" y="257.569833" style="fill: #5e8b5a; stroke: #5e8b5a; stroke-width: 0.24"/>
     <use xlink:href="#m7ec1a589bd" x="168.815125" y="257.569833" style="fill: #5e8b5a; stroke: #5e8b5a; stroke-width: 0.24"/>
     <use xlink:href="#m7ec1a589bd" x="214.638569" y="257.569833" style="fill: #5e8b5a; stroke: #5e8b5a; stroke-width: 0.24"/>
     <use xlink:href="#m7ec1a589bd" x="261.948306" y="257.569833" style="fill: #5e8b5a; stroke: #5e8b5a; stroke-width: 0.24"/>
     <use xlink:href="#m7ec1a589bd" x="307.77175" y="257.569833" style="fill: #5e8b5a; stroke: #5e8b5a; stroke-width: 0.24"/>
     <use xlink:href="#m7ec1a589bd" x="349.229723" y="257.569833" style="fill: #5e8b5a; stroke: #5e8b5a; stroke-width: 0.24"/>
     <use xlink:href="#m7ec1a589bd" x="383.717466" y="257.569833" style="fill: #5e8b5a; stroke: #5e8b5a; stroke-width: 0.24"/>
     <use xlink:href="#m7ec1a589bd" x="409.068756" y="257.569833" style="fill: #5e8b5a; stroke: #5e8b5a; stroke-width: 0.24"/>
     <use xlink:href="#m7ec1a589bd" x="423.696745" y="257.569833" style="fill: #5e8b5a; stroke: #5e8b5a; stroke-width: 0.24"/>
    </g>
   </g>
   <g id="text_15">
    <!-- Gauss-like nodes (Legendre grid) -->
    <g style="fill: #243746" transform="translate(107.126562 71.568) scale(0.14 -0.14)">
     <defs>
      <path id="DejaVuSans-Bold-47" d="M 4781 347 
Q 4331 128 3847 18 
Q 3363 -91 2847 -91 
Q 1681 -91 1000 561 
Q 319 1213 319 2328 
Q 319 3456 1012 4103 
Q 1706 4750 2913 4750 
Q 3378 4750 3804 4662 
Q 4231 4575 4609 4403 
L 4609 3438 
Q 4219 3659 3833 3768 
Q 3447 3878 3059 3878 
Q 2341 3878 1952 3476 
Q 1563 3075 1563 2328 
Q 1563 1588 1938 1184 
Q 2313 781 3003 781 
Q 3191 781 3352 804 
Q 3513 828 3641 878 
L 3641 1784 
L 2906 1784 
L 2906 2591 
L 4781 2591 
L 4781 347 
z
" transform="scale(0.015625)"/>
      <path id="DejaVuSans-Bold-61" d="M 2106 1575 
Q 1756 1575 1579 1456 
Q 1403 1338 1403 1106 
Q 1403 894 1545 773 
Q 1688 653 1941 653 
Q 2256 653 2472 879 
Q 2688 1106 2688 1447 
L 2688 1575 
L 2106 1575 
z
M 3816 1997 
L 3816 0 
L 2688 0 
L 2688 519 
Q 2463 200 2181 54 
Q 1900 -91 1497 -91 
Q 953 -91 614 226 
Q 275 544 275 1050 
Q 275 1666 698 1953 
Q 1122 2241 2028 2241 
L 2688 2241 
L 2688 2328 
Q 2688 2594 2478 2717 
Q 2269 2841 1825 2841 
Q 1466 2841 1156 2769 
Q 847 2697 581 2553 
L 581 3406 
Q 941 3494 1303 3539 
Q 1666 3584 2028 3584 
Q 2975 3584 3395 3211 
Q 3816 2838 3816 1997 
z
" transform="scale(0.015625)"/>
      <path id="DejaVuSans-Bold-75" d="M 500 1363 
L 500 3500 
L 1625 3500 
L 1625 3150 
Q 1625 2866 1622 2436 
Q 1619 2006 1619 1863 
Q 1619 1441 1641 1255 
Q 1663 1069 1716 984 
Q 1784 875 1895 815 
Q 2006 756 2150 756 
Q 2500 756 2700 1025 
Q 2900 1294 2900 1772 
L 2900 3500 
L 4019 3500 
L 4019 0 
L 2900 0 
L 2900 506 
Q 2647 200 2364 54 
Q 2081 -91 1741 -91 
Q 1134 -91 817 281 
Q 500 653 500 1363 
z
" transform="scale(0.015625)"/>
      <path id="DejaVuSans-Bold-73" d="M 3272 3391 
L 3272 2541 
Q 2913 2691 2578 2766 
Q 2244 2841 1947 2841 
Q 1628 2841 1473 2761 
Q 1319 2681 1319 2516 
Q 1319 2381 1436 2309 
Q 1553 2238 1856 2203 
L 2053 2175 
Q 2913 2066 3209 1816 
Q 3506 1566 3506 1031 
Q 3506 472 3093 190 
Q 2681 -91 1863 -91 
Q 1516 -91 1145 -36 
Q 775 19 384 128 
L 384 978 
Q 719 816 1070 734 
Q 1422 653 1784 653 
Q 2113 653 2278 743 
Q 2444 834 2444 1013 
Q 2444 1163 2330 1236 
Q 2216 1309 1875 1350 
L 1678 1375 
Q 931 1469 631 1722 
Q 331 1975 331 2491 
Q 331 3047 712 3315 
Q 1094 3584 1881 3584 
Q 2191 3584 2531 3537 
Q 2872 3491 3272 3391 
z
" transform="scale(0.015625)"/>
      <path id="DejaVuSans-Bold-2d" d="M 347 2297 
L 2309 2297 
L 2309 1388 
L 347 1388 
L 347 2297 
z
" transform="scale(0.015625)"/>
      <path id="DejaVuSans-Bold-6c" d="M 538 4863 
L 1656 4863 
L 1656 0 
L 538 0 
L 538 4863 
z
" transform="scale(0.015625)"/>
      <path id="DejaVuSans-Bold-69" d="M 538 3500 
L 1656 3500 
L 1656 0 
L 538 0 
L 538 3500 
z
M 538 4863 
L 1656 4863 
L 1656 3950 
L 538 3950 
L 538 4863 
z
" transform="scale(0.015625)"/>
      <path id="DejaVuSans-Bold-6b" d="M 538 4863 
L 1656 4863 
L 1656 2216 
L 2944 3500 
L 4244 3500 
L 2534 1894 
L 4378 0 
L 3022 0 
L 1656 1459 
L 1656 0 
L 538 0 
L 538 4863 
z
" transform="scale(0.015625)"/>
      <path id="DejaVuSans-Bold-65" d="M 4031 1759 
L 4031 1441 
L 1416 1441 
Q 1456 1047 1700 850 
Q 1944 653 2381 653 
Q 2734 653 3104 758 
Q 3475 863 3866 1075 
L 3866 213 
Q 3469 63 3072 -14 
Q 2675 -91 2278 -91 
Q 1328 -91 801 392 
Q 275 875 275 1747 
Q 275 2603 792 3093 
Q 1309 3584 2216 3584 
Q 3041 3584 3536 3087 
Q 4031 2591 4031 1759 
z
M 2881 2131 
Q 2881 2450 2695 2645 
Q 2509 2841 2209 2841 
Q 1884 2841 1681 2658 
Q 1478 2475 1428 2131 
L 2881 2131 
z
" transform="scale(0.015625)"/>
      <path id="DejaVuSans-Bold-20" transform="scale(0.015625)"/>
      <path id="DejaVuSans-Bold-6e" d="M 4056 2131 
L 4056 0 
L 2931 0 
L 2931 347 
L 2931 1631 
Q 2931 2084 2911 2256 
Q 2891 2428 2841 2509 
Q 2775 2619 2662 2680 
Q 2550 2741 2406 2741 
Q 2056 2741 1856 2470 
Q 1656 2200 1656 1722 
L 1656 0 
L 538 0 
L 538 3500 
L 1656 3500 
L 1656 2988 
Q 1909 3294 2193 3439 
Q 2478 3584 2822 3584 
Q 3428 3584 3742 3212 
Q 4056 2841 4056 2131 
z
" transform="scale(0.015625)"/>
      <path id="DejaVuSans-Bold-6f" d="M 2203 2784 
Q 1831 2784 1636 2517 
Q 1441 2250 1441 1747 
Q 1441 1244 1636 976 
Q 1831 709 2203 709 
Q 2569 709 2762 976 
Q 2956 1244 2956 1747 
Q 2956 2250 2762 2517 
Q 2569 2784 2203 2784 
z
M 2203 3584 
Q 3106 3584 3614 3096 
Q 4122 2609 4122 1747 
Q 4122 884 3614 396 
Q 3106 -91 2203 -91 
Q 1297 -91 786 396 
Q 275 884 275 1747 
Q 275 2609 786 3096 
Q 1297 3584 2203 3584 
z
" transform="scale(0.015625)"/>
      <path id="DejaVuSans-Bold-64" d="M 2919 2988 
L 2919 4863 
L 4044 4863 
L 4044 0 
L 2919 0 
L 2919 506 
Q 2688 197 2409 53 
Q 2131 -91 1766 -91 
Q 1119 -91 703 423 
Q 288 938 288 1747 
Q 288 2556 703 3070 
Q 1119 3584 1766 3584 
Q 2128 3584 2408 3439 
Q 2688 3294 2919 2988 
z
M 2181 722 
Q 2541 722 2730 984 
Q 2919 1247 2919 1747 
Q 2919 2247 2730 2509 
Q 2541 2772 2181 2772 
Q 1825 2772 1636 2509 
Q 1447 2247 1447 1747 
Q 1447 1247 1636 984 
Q 1825 722 2181 722 
z
" transform="scale(0.015625)"/>
      <path id="DejaVuSans-Bold-28" d="M 2413 -844 
L 1484 -844 
Q 1006 -72 778 623 
Q 550 1319 550 2003 
Q 550 2688 779 3389 
Q 1009 4091 1484 4856 
L 2413 4856 
Q 2013 4116 1813 3408 
Q 1613 2700 1613 2009 
Q 1613 1319 1811 609 
Q 2009 -100 2413 -844 
z
" transform="scale(0.015625)"/>
      <path id="DejaVuSans-Bold-4c" d="M 588 4666 
L 1791 4666 
L 1791 909 
L 3903 909 
L 3903 0 
L 588 0 
L 588 4666 
z
" transform="scale(0.015625)"/>
      <path id="DejaVuSans-Bold-67" d="M 2919 594 
Q 2688 288 2409 144 
Q 2131 0 1766 0 
Q 1125 0 706 504 
Q 288 1009 288 1791 
Q 288 2575 706 3076 
Q 1125 3578 1766 3578 
Q 2131 3578 2409 3434 
Q 2688 3291 2919 2981 
L 2919 3500 
L 4044 3500 
L 4044 353 
Q 4044 -491 3511 -936 
Q 2978 -1381 1966 -1381 
Q 1638 -1381 1331 -1331 
Q 1025 -1281 716 -1178 
L 716 -306 
Q 1009 -475 1290 -558 
Q 1572 -641 1856 -641 
Q 2406 -641 2662 -400 
Q 2919 -159 2919 353 
L 2919 594 
z
M 2181 2772 
Q 1834 2772 1640 2515 
Q 1447 2259 1447 1791 
Q 1447 1309 1634 1061 
Q 1822 813 2181 813 
Q 2531 813 2725 1069 
Q 2919 1325 2919 1791 
Q 2919 2259 2725 2515 
Q 2531 2772 2181 2772 
z
" transform="scale(0.015625)"/>
      <path id="DejaVuSans-Bold-72" d="M 3138 2547 
Q 2991 2616 2845 2648 
Q 2700 2681 2553 2681 
Q 2122 2681 1889 2404 
Q 1656 2128 1656 1613 
L 1656 0 
L 538 0 
L 538 3500 
L 1656 3500 
L 1656 2925 
Q 1872 3269 2151 3426 
Q 2431 3584 2822 3584 
Q 2878 3584 2943 3579 
Q 3009 3575 3134 3559 
L 3138 2547 
z
" transform="scale(0.015625)"/>
      <path id="DejaVuSans-Bold-29" d="M 513 -844 
Q 913 -100 1113 609 
Q 1313 1319 1313 2009 
Q 1313 2700 1113 3408 
Q 913 4116 513 4856 
L 1441 4856 
Q 1916 4091 2145 3389 
Q 2375 2688 2375 2003 
Q 2375 1319 2147 623 
Q 1919 -72 1441 -844 
L 513 -844 
z
" transform="scale(0.015625)"/>
     </defs>
     <use xlink:href="#DejaVuSans-Bold-47"/>
     <use xlink:href="#DejaVuSans-Bold-61" transform="translate(82.080078 0)"/>
     <use xlink:href="#DejaVuSans-Bold-75" transform="translate(149.560547 0)"/>
     <use xlink:href="#DejaVuSans-Bold-73" transform="translate(220.751953 0)"/>
     <use xlink:href="#DejaVuSans-Bold-73" transform="translate(280.273438 0)"/>
     <use xlink:href="#DejaVuSans-Bold-2d" transform="translate(339.794922 0)"/>
     <use xlink:href="#DejaVuSans-Bold-6c" transform="translate(381.298828 0)"/>
     <use xlink:href="#DejaVuSans-Bold-69" transform="translate(415.576172 0)"/>
     <use xlink:href="#DejaVuSans-Bold-6b" transform="translate(449.853516 0)"/>
     <use xlink:href="#DejaVuSans-Bold-65" transform="translate(513.732422 0)"/>
     <use xlink:href="#DejaVuSans-Bold-20" transform="translate(581.554688 0)"/>
     <use xlink:href="#DejaVuSans-Bold-6e" transform="translate(616.369141 0)"/>
     <use xlink:href="#DejaVuSans-Bold-6f" transform="translate(687.560547 0)"/>
     <use xlink:href="#DejaVuSans-Bold-64" transform="translate(756.261719 0)"/>
     <use xlink:href="#DejaVuSans-Bold-65" transform="translate(827.84375 0)"/>
     <use xlink:href="#DejaVuSans-Bold-73" transform="translate(895.666016 0)"/>
     <use xlink:href="#DejaVuSans-Bold-20" transform="translate(955.1875 0)"/>
     <use xlink:href="#DejaVuSans-Bold-28" transform="translate(990.001953 0)"/>
     <use xlink:href="#DejaVuSans-Bold-4c" transform="translate(1035.705078 0)"/>
     <use xlink:href="#DejaVuSans-Bold-65" transform="translate(1099.425781 0)"/>
     <use xlink:href="#DejaVuSans-Bold-67" transform="translate(1167.248047 0)"/>
     <use xlink:href="#DejaVuSans-Bold-65" transform="translate(1238.830078 0)"/>
     <use xlink:href="#DejaVuSans-Bold-6e" transform="translate(1306.652344 0)"/>
     <use xlink:href="#DejaVuSans-Bold-64" transform="translate(1377.84375 0)"/>
     <use xlink:href="#DejaVuSans-Bold-72" transform="translate(1449.425781 0)"/>
     <use xlink:href="#DejaVuSans-Bold-65" transform="translate(1498.742188 0)"/>
     <use xlink:href="#DejaVuSans-Bold-20" transform="translate(1566.564453 0)"/>
     <use xlink:href="#DejaVuSans-Bold-67" transform="translate(1601.378906 0)"/>
     <use xlink:href="#DejaVuSans-Bold-72" transform="translate(1672.960938 0)"/>
     <use xlink:href="#DejaVuSans-Bold-69" transform="translate(1722.277344 0)"/>
     <use xlink:href="#DejaVuSans-Bold-64" transform="translate(1756.554688 0)"/>
     <use xlink:href="#DejaVuSans-Bold-29" transform="translate(1828.136719 0)"/>
    </g>
   </g>
   <g id="PathCollection_2">
    <defs>
     <path id="m528372dff9" d="M 0 3.316625 
C 0.879579 3.316625 1.723251 2.967164 2.345208 2.345208 
C 2.967164 1.723251 3.316625 0.879579 3.316625 0 
C 3.316625 -0.879579 2.967164 -1.723251 2.345208 -2.345208 
C 1.723251 -2.967164 0.879579 -3.316625 0 -3.316625 
C -0.879579 -3.316625 -1.723251 -2.967164 -2.345208 -2.345208 
C -2.967164 -1.723251 -3.316625 -0.879579 -3.316625 0 
C -3.316625 0.879579 -2.967164 1.723251 -2.345208 2.345208 
C -1.723251 2.967164 -0.879579 3.316625 0 3.316625 
z
" style="stroke: #ffffff; stroke-width: 0.8"/>
    </defs>
    <g clip-path="url(#p19174bc501)">
     <use xlink:href="#m528372dff9" x="52.89013" y="246.6132" style="fill: #2f5d7e; stroke: #ffffff; stroke-width: 0.8"/>
     <use xlink:href="#m528372dff9" x="67.518119" y="235.471863" style="fill: #2f5d7e; stroke: #ffffff; stroke-width: 0.8"/>
     <use xlink:href="#m528372dff9" x="92.869409" y="219.886774" style="fill: #2f5d7e; stroke: #ffffff; stroke-width: 0.8"/>
     <use xlink:href="#m528372dff9" x="127.357152" y="198.733987" style="fill: #2f5d7e; stroke: #ffffff; stroke-width: 0.8"/>
     <use xlink:href="#m528372dff9" x="168.815125" y="173.473938" style="fill: #2f5d7e; stroke: #ffffff; stroke-width: 0.8"/>
     <use xlink:href="#m528372dff9" x="214.638569" y="146.064661" style="fill: #2f5d7e; stroke: #ffffff; stroke-width: 0.8"/>
     <use xlink:href="#m528372dff9" x="261.948306" y="119.284655" style="fill: #2f5d7e; stroke: #ffffff; stroke-width: 0.8"/>
     <use xlink:href="#m528372dff9" x="307.77175" y="97.763103" style="fill: #2f5d7e; stroke: #ffffff; stroke-width: 0.8"/>
     <use xlink:href="#m528372dff9" x="349.229723" y="90.089867" style="fill: #2f5d7e; stroke: #ffffff; stroke-width: 0.8"/>
     <use xlink:href="#m528372dff9" x="383.717466" y="109.561348" style="fill: #2f5d7e; stroke: #ffffff; stroke-width: 0.8"/>
     <use xlink:href="#m528372dff9" x="409.068756" y="163.363822" style="fill: #2f5d7e; stroke: #ffffff; stroke-width: 0.8"/>
     <use xlink:href="#m528372dff9" x="423.696745" y="246.6132" style="fill: #2f5d7e; stroke: #ffffff; stroke-width: 0.8"/>
    </g>
   </g>
   <g id="PathCollection_3">
    <defs>
     <path id="m488b777cb7" d="M -3.316625 3.316625 
L 3.316625 3.316625 
L 3.316625 -3.316625 
L -3.316625 -3.316625 
z
" style="stroke: #ffffff; stroke-width: 0.8"/>
    </defs>
    <g clip-path="url(#p19174bc501)">
     <use xlink:href="#m488b777cb7" x="52.89013" y="246.6132" style="fill: #d97941; stroke: #ffffff; stroke-width: 0.8"/>
     <use xlink:href="#m488b777cb7" x="67.518119" y="241.866716" style="fill: #d97941; stroke: #ffffff; stroke-width: 0.8"/>
     <use xlink:href="#m488b777cb7" x="92.869409" y="235.238617" style="fill: #d97941; stroke: #ffffff; stroke-width: 0.8"/>
     <use xlink:href="#m488b777cb7" x="127.357152" y="226.294706" style="fill: #d97941; stroke: #ffffff; stroke-width: 0.8"/>
     <use xlink:href="#m488b777cb7" x="168.815125" y="215.771798" style="fill: #d97941; stroke: #ffffff; stroke-width: 0.8"/>
     <use xlink:href="#m488b777cb7" x="214.638569" y="204.738754" style="fill: #d97941; stroke: #ffffff; stroke-width: 0.8"/>
     <use xlink:href="#m488b777cb7" x="261.948306" y="194.782535" style="fill: #d97941; stroke: #ffffff; stroke-width: 0.8"/>
     <use xlink:href="#m488b777cb7" x="307.77175" y="188.345799" style="fill: #d97941; stroke: #ffffff; stroke-width: 0.8"/>
     <use xlink:href="#m488b777cb7" x="349.229723" y="188.931048" style="fill: #d97941; stroke: #ffffff; stroke-width: 0.8"/>
     <use xlink:href="#m488b777cb7" x="383.717466" y="199.945548" style="fill: #d97941; stroke: #ffffff; stroke-width: 0.8"/>
     <use xlink:href="#m488b777cb7" x="409.068756" y="220.487914" style="fill: #d97941; stroke: #ffffff; stroke-width: 0.8"/>
     <use xlink:href="#m488b777cb7" x="423.696745" y="246.6132" style="fill: #d97941; stroke: #ffffff; stroke-width: 0.8"/>
    </g>
   </g>
   <g id="legend_1">
    <g id="patch_7">
     <path d="M 147.089531 100.246125 
L 329.497344 100.246125 
Q 331.497344 100.246125 331.497344 98.246125 
L 331.497344 84.568 
Q 331.497344 82.568 329.497344 82.568 
L 147.089531 82.568 
Q 145.089531 82.568 145.089531 84.568 
L 145.089531 98.246125 
Q 145.089531 100.246125 147.089531 100.246125 
z
" style="fill: #ffffff; opacity: 0.9; stroke: #000000; stroke-width: 0.24; stroke-linejoin: miter"/>
    </g>
    <g id="line2d_39">
     <path d="M 149.089531 90.666438 
L 159.089531 90.666438 
L 169.089531 90.666438 
" style="fill: none; stroke: #2f5d7e; stroke-width: 2.2; stroke-linecap: square"/>
    </g>
    <g id="text_16">
     <!-- heat input -->
     <g transform="translate(177.089531 94.166438) scale(0.1 -0.1)">
      <defs>
       <path id="DejaVuSans-68" d="M 3513 2113 
L 3513 0 
L 2938 0 
L 2938 2094 
Q 2938 2591 2744 2837 
Q 2550 3084 2163 3084 
Q 1697 3084 1428 2787 
Q 1159 2491 1159 1978 
L 1159 0 
L 581 0 
L 581 4863 
L 1159 4863 
L 1159 2956 
Q 1366 3272 1645 3428 
Q 1925 3584 2291 3584 
Q 2894 3584 3203 3211 
Q 3513 2838 3513 2113 
z
" transform="scale(0.015625)"/>
       <path id="DejaVuSans-70" d="M 1159 525 
L 1159 -1331 
L 581 -1331 
L 581 3500 
L 1159 3500 
L 1159 2969 
Q 1341 3281 1617 3432 
Q 1894 3584 2278 3584 
Q 2916 3584 3314 3078 
Q 3713 2572 3713 1747 
Q 3713 922 3314 415 
Q 2916 -91 2278 -91 
Q 1894 -91 1617 61 
Q 1341 213 1159 525 
z
M 3116 1747 
Q 3116 2381 2855 2742 
Q 2594 3103 2138 3103 
Q 1681 3103 1420 2742 
Q 1159 2381 1159 1747 
Q 1159 1113 1420 752 
Q 1681 391 2138 391 
Q 2594 391 2855 752 
Q 3116 1113 3116 1747 
z
" transform="scale(0.015625)"/>
      </defs>
      <use xlink:href="#DejaVuSans-68"/>
      <use xlink:href="#DejaVuSans-65" transform="translate(63.378906 0)"/>
      <use xlink:href="#DejaVuSans-61" transform="translate(124.902344 0)"/>
      <use xlink:href="#DejaVuSans-74" transform="translate(186.181641 0)"/>
      <use xlink:href="#DejaVuSans-20" transform="translate(225.390625 0)"/>
      <use xlink:href="#DejaVuSans-69" transform="translate(257.177734 0)"/>
      <use xlink:href="#DejaVuSans-6e" transform="translate(284.960938 0)"/>
      <use xlink:href="#DejaVuSans-70" transform="translate(348.339844 0)"/>
      <use xlink:href="#DejaVuSans-75" transform="translate(411.816406 0)"/>
      <use xlink:href="#DejaVuSans-74" transform="translate(475.195312 0)"/>
     </g>
    </g>
    <g id="line2d_40">
     <path d="M 234.528594 90.666438 
L 244.528594 90.666438 
L 254.528594 90.666438 
" style="fill: none; stroke: #d97941; stroke-width: 2.2; stroke-linecap: square"/>
    </g>
    <g id="text_17">
     <!-- current input -->
     <g transform="translate(262.528594 94.166438) scale(0.1 -0.1)">
      <use xlink:href="#DejaVuSans-63"/>
      <use xlink:href="#DejaVuSans-75" transform="translate(54.980469 0)"/>
      <use xlink:href="#DejaVuSans-72" transform="translate(118.359375 0)"/>
      <use xlink:href="#DejaVuSans-72" transform="translate(157.722656 0)"/>
      <use xlink:href="#DejaVuSans-65" transform="translate(196.585938 0)"/>
      <use xlink:href="#DejaVuSans-6e" transform="translate(258.109375 0)"/>
      <use xlink:href="#DejaVuSans-74" transform="translate(321.488281 0)"/>
      <use xlink:href="#DejaVuSans-20" transform="translate(360.697266 0)"/>
      <use xlink:href="#DejaVuSans-69" transform="translate(392.484375 0)"/>
      <use xlink:href="#DejaVuSans-6e" transform="translate(420.267578 0)"/>
      <use xlink:href="#DejaVuSans-70" transform="translate(483.646484 0)"/>
      <use xlink:href="#DejaVuSans-75" transform="translate(547.123047 0)"/>
      <use xlink:href="#DejaVuSans-74" transform="translate(610.501953 0)"/>
     </g>
    </g>
   </g>
  </g>
  <g id="axes_2">
   <g id="patch_8">
    <path d="M 457.509687 265.396 
L 835.282187 265.396 
L 835.282187 77.568 
L 457.509687 77.568 
z
" style="fill: #f4d1bc"/>
   </g>
   <g id="line2d_41">
    <path d="M 457.509687 265.396 
L 457.509687 77.568 
" clip-path="url(#p64b70f1df4)" style="fill: none; stroke: #7a828a; stroke-opacity: 0.2; stroke-width: 0.8; stroke-linecap: square"/>
   </g>
   <g id="line2d_42">
    <path d="M 491.852642 265.396 
L 491.852642 77.568 
" clip-path="url(#p64b70f1df4)" style="fill: none; stroke: #7a828a; stroke-opacity: 0.2; stroke-width: 0.8; stroke-linecap: square"/>
   </g>
   <g id="line2d_43">
    <path d="M 526.195597 265.396 
L 526.195597 77.568 
" clip-path="url(#p64b70f1df4)" style="fill: none; stroke: #7a828a; stroke-opacity: 0.2; stroke-width: 0.8; stroke-linecap: square"/>
   </g>
   <g id="line2d_44">
    <path d="M 560.538551 265.396 
L 560.538551 77.568 
" clip-path="url(#p64b70f1df4)" style="fill: none; stroke: #7a828a; stroke-opacity: 0.2; stroke-width: 0.8; stroke-linecap: square"/>
   </g>
   <g id="line2d_45">
    <path d="M 594.881506 265.396 
L 594.881506 77.568 
" clip-path="url(#p64b70f1df4)" style="fill: none; stroke: #7a828a; stroke-opacity: 0.2; stroke-width: 0.8; stroke-linecap: square"/>
   </g>
   <g id="line2d_46">
    <path d="M 629.22446 265.396 
L 629.22446 77.568 
" clip-path="url(#p64b70f1df4)" style="fill: none; stroke: #7a828a; stroke-opacity: 0.2; stroke-width: 0.8; stroke-linecap: square"/>
   </g>
   <g id="line2d_47">
    <path d="M 663.567415 265.396 
L 663.567415 77.568 
" clip-path="url(#p64b70f1df4)" style="fill: none; stroke: #7a828a; stroke-opacity: 0.2; stroke-width: 0.8; stroke-linecap: square"/>
   </g>
   <g id="line2d_48">
    <path d="M 697.910369 265.396 
L 697.910369 77.568 
" clip-path="url(#p64b70f1df4)" style="fill: none; stroke: #7a828a; stroke-opacity: 0.2; stroke-width: 0.8; stroke-linecap: square"/>
   </g>
   <g id="line2d_49">
    <path d="M 732.253324 265.396 
L 732.253324 77.568 
" clip-path="url(#p64b70f1df4)" style="fill: none; stroke: #7a828a; stroke-opacity: 0.2; stroke-width: 0.8; stroke-linecap: square"/>
   </g>
   <g id="line2d_50">
    <path d="M 766.596278 265.396 
L 766.596278 77.568 
" clip-path="url(#p64b70f1df4)" style="fill: none; stroke: #7a828a; stroke-opacity: 0.2; stroke-width: 0.8; stroke-linecap: square"/>
   </g>
   <g id="line2d_51">
    <path d="M 800.939233 265.396 
L 800.939233 77.568 
" clip-path="url(#p64b70f1df4)" style="fill: none; stroke: #7a828a; stroke-opacity: 0.2; stroke-width: 0.8; stroke-linecap: square"/>
   </g>
   <g id="line2d_52">
    <path d="M 835.282187 265.396 
L 835.282187 77.568 
" clip-path="url(#p64b70f1df4)" style="fill: none; stroke: #7a828a; stroke-opacity: 0.2; stroke-width: 0.8; stroke-linecap: square"/>
   </g>
   <g id="matplotlib.axis_3">
    <g id="xtick_7">
     <g id="line2d_53">
      <path d="M 457.509687 265.396 
L 457.509687 77.568 
" clip-path="url(#p64b70f1df4)" style="fill: none; stroke-dasharray: 2.96,1.28; stroke-dashoffset: 0; stroke: #b0b0b0; stroke-opacity: 0.15; stroke-width: 0.8"/>
     </g>
     <g id="line2d_54">
      <g>
       <use xlink:href="#mbed71c6a86" x="457.509687" y="265.396" style="stroke: #000000; stroke-width: 0.8"/>
      </g>
     </g>
     <g id="text_18">
      <!-- 0.0 -->
      <g transform="translate(448.762969 282.854281) scale(0.11 -0.11)">
       <use xlink:href="#DejaVuSans-30"/>
       <use xlink:href="#DejaVuSans-2e" transform="translate(63.623047 0)"/>
       <use xlink:href="#DejaVuSans-30" transform="translate(95.410156 0)"/>
      </g>
     </g>
    </g>
    <g id="xtick_8">
     <g id="line2d_55">
      <path d="M 533.064187 265.396 
L 533.064187 77.568 
" clip-path="url(#p64b70f1df4)" style="fill: none; stroke-dasharray: 2.96,1.28; stroke-dashoffset: 0; stroke: #b0b0b0; stroke-opacity: 0.15; stroke-width: 0.8"/>
     </g>
     <g id="line2d_56">
      <g>
       <use xlink:href="#mbed71c6a86" x="533.064187" y="265.396" style="stroke: #000000; stroke-width: 0.8"/>
      </g>
     </g>
     <g id="text_19">
      <!-- 0.2 -->
      <g transform="translate(524.317469 282.854281) scale(0.11 -0.11)">
       <use xlink:href="#DejaVuSans-30"/>
       <use xlink:href="#DejaVuSans-2e" transform="translate(63.623047 0)"/>
       <use xlink:href="#DejaVuSans-32" transform="translate(95.410156 0)"/>
      </g>
     </g>
    </g>
    <g id="xtick_9">
     <g id="line2d_57">
      <path d="M 608.618687 265.396 
L 608.618687 77.568 
" clip-path="url(#p64b70f1df4)" style="fill: none; stroke-dasharray: 2.96,1.28; stroke-dashoffset: 0; stroke: #b0b0b0; stroke-opacity: 0.15; stroke-width: 0.8"/>
     </g>
     <g id="line2d_58">
      <g>
       <use xlink:href="#mbed71c6a86" x="608.618687" y="265.396" style="stroke: #000000; stroke-width: 0.8"/>
      </g>
     </g>
     <g id="text_20">
      <!-- 0.4 -->
      <g transform="translate(599.871969 282.854281) scale(0.11 -0.11)">
       <use xlink:href="#DejaVuSans-30"/>
       <use xlink:href="#DejaVuSans-2e" transform="translate(63.623047 0)"/>
       <use xlink:href="#DejaVuSans-34" transform="translate(95.410156 0)"/>
      </g>
     </g>
    </g>
    <g id="xtick_10">
     <g id="line2d_59">
      <path d="M 684.173187 265.396 
L 684.173187 77.568 
" clip-path="url(#p64b70f1df4)" style="fill: none; stroke-dasharray: 2.96,1.28; stroke-dashoffset: 0; stroke: #b0b0b0; stroke-opacity: 0.15; stroke-width: 0.8"/>
     </g>
     <g id="line2d_60">
      <g>
       <use xlink:href="#mbed71c6a86" x="684.173187" y="265.396" style="stroke: #000000; stroke-width: 0.8"/>
      </g>
     </g>
     <g id="text_21">
      <!-- 0.6 -->
      <g transform="translate(675.426469 282.854281) scale(0.11 -0.11)">
       <use xlink:href="#DejaVuSans-30"/>
       <use xlink:href="#DejaVuSans-2e" transform="translate(63.623047 0)"/>
       <use xlink:href="#DejaVuSans-36" transform="translate(95.410156 0)"/>
      </g>
     </g>
    </g>
    <g id="xtick_11">
     <g id="line2d_61">
      <path d="M 759.727687 265.396 
L 759.727687 77.568 
" clip-path="url(#p64b70f1df4)" style="fill: none; stroke-dasharray: 2.96,1.28; stroke-dashoffset: 0; stroke: #b0b0b0; stroke-opacity: 0.15; stroke-width: 0.8"/>
     </g>
     <g id="line2d_62">
      <g>
       <use xlink:href="#mbed71c6a86" x="759.727687" y="265.396" style="stroke: #000000; stroke-width: 0.8"/>
      </g>
     </g>
     <g id="text_22">
      <!-- 0.8 -->
      <g transform="translate(750.980969 282.854281) scale(0.11 -0.11)">
       <use xlink:href="#DejaVuSans-30"/>
       <use xlink:href="#DejaVuSans-2e" transform="translate(63.623047 0)"/>
       <use xlink:href="#DejaVuSans-38" transform="translate(95.410156 0)"/>
      </g>
     </g>
    </g>
    <g id="xtick_12">
     <g id="line2d_63">
      <path d="M 835.282187 265.396 
L 835.282187 77.568 
" clip-path="url(#p64b70f1df4)" style="fill: none; stroke-dasharray: 2.96,1.28; stroke-dashoffset: 0; stroke: #b0b0b0; stroke-opacity: 0.15; stroke-width: 0.8"/>
     </g>
     <g id="line2d_64">
      <g>
       <use xlink:href="#mbed71c6a86" x="835.282187" y="265.396" style="stroke: #000000; stroke-width: 0.8"/>
      </g>
     </g>
     <g id="text_23">
      <!-- 1.0 -->
      <g transform="translate(826.535469 282.854281) scale(0.11 -0.11)">
       <use xlink:href="#DejaVuSans-31"/>
       <use xlink:href="#DejaVuSans-2e" transform="translate(63.623047 0)"/>
       <use xlink:href="#DejaVuSans-30" transform="translate(95.410156 0)"/>
      </g>
     </g>
    </g>
    <g id="text_24">
     <!-- normalized radius -->
     <g transform="translate(592.60125 298.260062) scale(0.12 -0.12)">
      <use xlink:href="#DejaVuSans-6e"/>
      <use xlink:href="#DejaVuSans-6f" transform="translate(63.378906 0)"/>
      <use xlink:href="#DejaVuSans-72" transform="translate(124.560547 0)"/>
      <use xlink:href="#DejaVuSans-6d" transform="translate(163.923828 0)"/>
      <use xlink:href="#DejaVuSans-61" transform="translate(261.335938 0)"/>
      <use xlink:href="#DejaVuSans-6c" transform="translate(322.615234 0)"/>
      <use xlink:href="#DejaVuSans-69" transform="translate(350.398438 0)"/>
      <use xlink:href="#DejaVuSans-7a" transform="translate(378.181641 0)"/>
      <use xlink:href="#DejaVuSans-65" transform="translate(430.671875 0)"/>
      <use xlink:href="#DejaVuSans-64" transform="translate(492.195312 0)"/>
      <use xlink:href="#DejaVuSans-20" transform="translate(555.671875 0)"/>
      <use xlink:href="#DejaVuSans-72" transform="translate(587.458984 0)"/>
      <use xlink:href="#DejaVuSans-61" transform="translate(628.572266 0)"/>
      <use xlink:href="#DejaVuSans-64" transform="translate(689.851562 0)"/>
      <use xlink:href="#DejaVuSans-69" transform="translate(753.328125 0)"/>
      <use xlink:href="#DejaVuSans-75" transform="translate(781.111328 0)"/>
      <use xlink:href="#DejaVuSans-73" transform="translate(844.490234 0)"/>
     </g>
    </g>
   </g>
   <g id="matplotlib.axis_4">
    <g id="ytick_7">
     <g id="line2d_65">
      <path d="M 457.509687 246.6132 
L 835.282187 246.6132 
" clip-path="url(#p64b70f1df4)" style="fill: none; stroke-dasharray: 2.96,1.28; stroke-dashoffset: 0; stroke: #b0b0b0; stroke-opacity: 0.15; stroke-width: 0.8"/>
     </g>
     <g id="line2d_66">
      <g>
       <use xlink:href="#m5ed3a0402c" x="457.509687" y="246.6132" style="stroke: #000000; stroke-width: 0.8"/>
      </g>
     </g>
    </g>
    <g id="ytick_8">
     <g id="line2d_67">
      <path d="M 457.509687 215.308533 
L 835.282187 215.308533 
" clip-path="url(#p64b70f1df4)" style="fill: none; stroke-dasharray: 2.96,1.28; stroke-dashoffset: 0; stroke: #b0b0b0; stroke-opacity: 0.15; stroke-width: 0.8"/>
     </g>
     <g id="line2d_68">
      <g>
       <use xlink:href="#m5ed3a0402c" x="457.509687" y="215.308533" style="stroke: #000000; stroke-width: 0.8"/>
      </g>
     </g>
    </g>
    <g id="ytick_9">
     <g id="line2d_69">
      <path d="M 457.509687 184.003867 
L 835.282187 184.003867 
" clip-path="url(#p64b70f1df4)" style="fill: none; stroke-dasharray: 2.96,1.28; stroke-dashoffset: 0; stroke: #b0b0b0; stroke-opacity: 0.15; stroke-width: 0.8"/>
     </g>
     <g id="line2d_70">
      <g>
       <use xlink:href="#m5ed3a0402c" x="457.509687" y="184.003867" style="stroke: #000000; stroke-width: 0.8"/>
      </g>
     </g>
    </g>
    <g id="ytick_10">
     <g id="line2d_71">
      <path d="M 457.509687 152.6992 
L 835.282187 152.6992 
" clip-path="url(#p64b70f1df4)" style="fill: none; stroke-dasharray: 2.96,1.28; stroke-dashoffset: 0; stroke: #b0b0b0; stroke-opacity: 0.15; stroke-width: 0.8"/>
     </g>
     <g id="line2d_72">
      <g>
       <use xlink:href="#m5ed3a0402c" x="457.509687" y="152.6992" style="stroke: #000000; stroke-width: 0.8"/>
      </g>
     </g>
    </g>
    <g id="ytick_11">
     <g id="line2d_73">
      <path d="M 457.509687 121.394533 
L 835.282187 121.394533 
" clip-path="url(#p64b70f1df4)" style="fill: none; stroke-dasharray: 2.96,1.28; stroke-dashoffset: 0; stroke: #b0b0b0; stroke-opacity: 0.15; stroke-width: 0.8"/>
     </g>
     <g id="line2d_74">
      <g>
       <use xlink:href="#m5ed3a0402c" x="457.509687" y="121.394533" style="stroke: #000000; stroke-width: 0.8"/>
      </g>
     </g>
    </g>
    <g id="ytick_12">
     <g id="line2d_75">
      <path d="M 457.509687 90.089867 
L 835.282187 90.089867 
" clip-path="url(#p64b70f1df4)" style="fill: none; stroke-dasharray: 2.96,1.28; stroke-dashoffset: 0; stroke: #b0b0b0; stroke-opacity: 0.15; stroke-width: 0.8"/>
     </g>
     <g id="line2d_76">
      <g>
       <use xlink:href="#m5ed3a0402c" x="457.509687" y="90.089867" style="stroke: #000000; stroke-width: 0.8"/>
      </g>
     </g>
    </g>
   </g>
   <g id="line2d_77">
    <path d="M 457.509687 246.6132 
L 548.441229 190.879046 
L 587.623112 167.120335 
L 614.976503 150.785597 
L 635.676366 138.676345 
L 651.940544 129.405998 
L 665.986879 121.654985 
L 677.815372 115.383696 
L 688.165304 110.153732 
L 697.036674 105.918297 
L 705.168763 102.288684 
L 712.561571 99.248046 
L 719.215098 96.767536 
L 725.129345 94.805713 
L 730.304311 93.309168 
L 735.479277 92.050701 
L 739.914961 91.189032 
L 744.350646 90.555501 
L 748.047051 90.223519 
L 751.743455 90.090648 
L 755.439859 90.178981 
L 759.136263 90.513245 
L 762.093386 90.976225 
L 765.050509 91.629956 
L 768.007633 92.491642 
L 770.964756 93.580144 
L 773.921879 94.916153 
L 776.879003 96.522374 
L 779.836126 98.423738 
L 782.793249 100.647626 
L 785.750372 103.224133 
L 788.707496 106.186343 
L 790.925338 108.682878 
L 793.143181 111.433454 
L 795.361023 114.456004 
L 797.578866 117.769805 
L 799.796708 121.395589 
L 802.014551 125.355652 
L 804.232393 129.673983 
L 806.450235 134.376397 
L 808.668078 139.490684 
L 810.88592 145.046764 
L 813.103763 151.076864 
L 815.321605 157.615701 
L 817.539448 164.700687 
L 819.75729 172.372146 
L 821.975133 180.673557 
L 824.192975 189.651808 
L 826.410818 199.357484 
L 828.62866 209.845164 
L 830.846503 221.17376 
L 833.064345 233.406876 
L 835.282187 246.6132 
L 835.282187 246.6132 
" clip-path="url(#p64b70f1df4)" style="fill: none; stroke: #2f5d7e; stroke-width: 2.2; stroke-linecap: square"/>
   </g>
   <g id="line2d_78">
    <path d="M 457.509687 246.6132 
L 535.134174 226.407965 
L 572.098215 217.019074 
L 599.451605 210.290087 
L 621.63003 205.05509 
L 640.112051 200.914488 
L 655.636948 197.652053 
L 669.683283 194.925879 
L 681.511777 192.843687 
L 692.600989 191.11443 
L 702.21164 189.829777 
L 711.083009 188.857073 
L 719.215098 188.1791 
L 726.607907 187.771024 
L 734.000715 187.594082 
L 740.654242 187.663243 
L 746.568489 187.93286 
L 752.482735 188.425006 
L 757.657701 189.061112 
L 762.832667 189.912197 
L 768.007633 191.003278 
L 772.443318 192.150762 
L 776.879003 193.515013 
L 781.314687 195.117989 
L 785.750372 196.984053 
L 789.446777 198.759495 
L 793.143181 200.753585 
L 796.839585 202.985129 
L 800.535989 205.474675 
L 804.232393 208.244679 
L 807.928797 211.319698 
L 811.625201 214.726601 
L 815.321605 218.494791 
L 819.018009 222.656468 
L 821.975133 226.292717 
L 824.932256 230.222917 
L 827.889379 234.468176 
L 830.846503 239.05122 
L 833.803626 243.996531 
L 835.282187 246.6132 
L 835.282187 246.6132 
" clip-path="url(#p64b70f1df4)" style="fill: none; stroke: #d97941; stroke-width: 2.2; stroke-linecap: square"/>
   </g>
   <g id="patch_9">
    <path d="M 457.509687 265.396 
L 457.509687 77.568 
" style="fill: none; stroke: #000000; stroke-width: 0.8; stroke-linejoin: miter; stroke-linecap: square"/>
   </g>
   <g id="patch_10">
    <path d="M 835.282187 265.396 
L 835.282187 77.568 
" style="fill: none; stroke: #000000; stroke-width: 0.8; stroke-linejoin: miter; stroke-linecap: square"/>
   </g>
   <g id="patch_11">
    <path d="M 457.509687 265.396 
L 835.282187 265.396 
" style="fill: none; stroke: #000000; stroke-width: 0.8; stroke-linejoin: miter; stroke-linecap: square"/>
   </g>
   <g id="patch_12">
    <path d="M 457.509687 77.568 
L 835.282187 77.568 
" style="fill: none; stroke: #000000; stroke-width: 0.8; stroke-linejoin: miter; stroke-linecap: square"/>
   </g>
   <g id="PathCollection_4">
    <g clip-path="url(#p64b70f1df4)">
     <use xlink:href="#m7ec1a589bd" x="457.509687" y="257.569833" style="fill: #5e8b5a; stroke: #5e8b5a; stroke-width: 0.24"/>
     <use xlink:href="#m7ec1a589bd" x="491.852642" y="257.569833" style="fill: #5e8b5a; stroke: #5e8b5a; stroke-width: 0.24"/>
     <use xlink:href="#m7ec1a589bd" x="526.195597" y="257.569833" style="fill: #5e8b5a; stroke: #5e8b5a; stroke-width: 0.24"/>
     <use xlink:href="#m7ec1a589bd" x="560.538551" y="257.569833" style="fill: #5e8b5a; stroke: #5e8b5a; stroke-width: 0.24"/>
     <use xlink:href="#m7ec1a589bd" x="594.881506" y="257.569833" style="fill: #5e8b5a; stroke: #5e8b5a; stroke-width: 0.24"/>
     <use xlink:href="#m7ec1a589bd" x="629.22446" y="257.569833" style="fill: #5e8b5a; stroke: #5e8b5a; stroke-width: 0.24"/>
     <use xlink:href="#m7ec1a589bd" x="663.567415" y="257.569833" style="fill: #5e8b5a; stroke: #5e8b5a; stroke-width: 0.24"/>
     <use xlink:href="#m7ec1a589bd" x="697.910369" y="257.569833" style="fill: #5e8b5a; stroke: #5e8b5a; stroke-width: 0.24"/>
     <use xlink:href="#m7ec1a589bd" x="732.253324" y="257.569833" style="fill: #5e8b5a; stroke: #5e8b5a; stroke-width: 0.24"/>
     <use xlink:href="#m7ec1a589bd" x="766.596278" y="257.569833" style="fill: #5e8b5a; stroke: #5e8b5a; stroke-width: 0.24"/>
     <use xlink:href="#m7ec1a589bd" x="800.939233" y="257.569833" style="fill: #5e8b5a; stroke: #5e8b5a; stroke-width: 0.24"/>
     <use xlink:href="#m7ec1a589bd" x="835.282187" y="257.569833" style="fill: #5e8b5a; stroke: #5e8b5a; stroke-width: 0.24"/>
    </g>
   </g>
   <g id="text_25">
    <!-- Uniform nodes -->
    <g style="fill: #243746" transform="translate(588.574844 71.568) scale(0.14 -0.14)">
     <defs>
      <path id="DejaVuSans-Bold-55" d="M 588 4666 
L 1791 4666 
L 1791 1869 
Q 1791 1291 1980 1042 
Q 2169 794 2597 794 
Q 3028 794 3217 1042 
Q 3406 1291 3406 1869 
L 3406 4666 
L 4609 4666 
L 4609 1869 
Q 4609 878 4112 393 
Q 3616 -91 2597 -91 
Q 1581 -91 1084 393 
Q 588 878 588 1869 
L 588 4666 
z
" transform="scale(0.015625)"/>
      <path id="DejaVuSans-Bold-66" d="M 2841 4863 
L 2841 4128 
L 2222 4128 
Q 1984 4128 1890 4042 
Q 1797 3956 1797 3744 
L 1797 3500 
L 2753 3500 
L 2753 2700 
L 1797 2700 
L 1797 0 
L 678 0 
L 678 2700 
L 122 2700 
L 122 3500 
L 678 3500 
L 678 3744 
Q 678 4316 997 4589 
Q 1316 4863 1984 4863 
L 2841 4863 
z
" transform="scale(0.015625)"/>
      <path id="DejaVuSans-Bold-6d" d="M 3781 2919 
Q 3994 3244 4286 3414 
Q 4578 3584 4928 3584 
Q 5531 3584 5847 3212 
Q 6163 2841 6163 2131 
L 6163 0 
L 5038 0 
L 5038 1825 
Q 5041 1866 5042 1909 
Q 5044 1953 5044 2034 
Q 5044 2406 4934 2573 
Q 4825 2741 4581 2741 
Q 4263 2741 4089 2478 
Q 3916 2216 3909 1719 
L 3909 0 
L 2784 0 
L 2784 1825 
Q 2784 2406 2684 2573 
Q 2584 2741 2328 2741 
Q 2006 2741 1831 2477 
Q 1656 2213 1656 1722 
L 1656 0 
L 531 0 
L 531 3500 
L 1656 3500 
L 1656 2988 
Q 1863 3284 2130 3434 
Q 2397 3584 2719 3584 
Q 3081 3584 3359 3409 
Q 3638 3234 3781 2919 
z
" transform="scale(0.015625)"/>
     </defs>
     <use xlink:href="#DejaVuSans-Bold-55"/>
     <use xlink:href="#DejaVuSans-Bold-6e" transform="translate(81.201172 0)"/>
     <use xlink:href="#DejaVuSans-Bold-69" transform="translate(152.392578 0)"/>
     <use xlink:href="#DejaVuSans-Bold-66" transform="translate(186.669922 0)"/>
     <use xlink:href="#DejaVuSans-Bold-6f" transform="translate(230.175781 0)"/>
     <use xlink:href="#DejaVuSans-Bold-72" transform="translate(298.876953 0)"/>
     <use xlink:href="#DejaVuSans-Bold-6d" transform="translate(348.193359 0)"/>
     <use xlink:href="#DejaVuSans-Bold-20" transform="translate(452.392578 0)"/>
     <use xlink:href="#DejaVuSans-Bold-6e" transform="translate(487.207031 0)"/>
     <use xlink:href="#DejaVuSans-Bold-6f" transform="translate(558.398438 0)"/>
     <use xlink:href="#DejaVuSans-Bold-64" transform="translate(627.099609 0)"/>
     <use xlink:href="#DejaVuSans-Bold-65" transform="translate(698.681641 0)"/>
     <use xlink:href="#DejaVuSans-Bold-73" transform="translate(766.503906 0)"/>
    </g>
   </g>
   <g id="PathCollection_5">
    <g clip-path="url(#p64b70f1df4)">
     <use xlink:href="#m528372dff9" x="457.509687" y="246.6132" style="fill: #2f5d7e; stroke: #ffffff; stroke-width: 0.8"/>
     <use xlink:href="#m528372dff9" x="491.852642" y="225.253581" style="fill: #2f5d7e; stroke: #ffffff; stroke-width: 0.8"/>
     <use xlink:href="#m528372dff9" x="526.195597" y="203.933833" style="fill: #2f5d7e; stroke: #ffffff; stroke-width: 0.8"/>
     <use xlink:href="#m528372dff9" x="560.538551" y="182.711877" style="fill: #2f5d7e; stroke: #ffffff; stroke-width: 0.8"/>
     <use xlink:href="#m528372dff9" x="594.881506" y="161.693509" style="fill: #2f5d7e; stroke: #ffffff; stroke-width: 0.8"/>
     <use xlink:href="#m528372dff9" x="629.22446" y="141.095959" style="fill: #2f5d7e; stroke: #ffffff; stroke-width: 0.8"/>
     <use xlink:href="#m528372dff9" x="663.567415" y="121.398549" style="fill: #2f5d7e; stroke: #ffffff; stroke-width: 0.8"/>
     <use xlink:href="#m528372dff9" x="697.910369" y="103.723362" style="fill: #2f5d7e; stroke: #ffffff; stroke-width: 0.8"/>
     <use xlink:href="#m528372dff9" x="732.253324" y="90.851539" style="fill: #2f5d7e; stroke: #ffffff; stroke-width: 0.8"/>
     <use xlink:href="#m528372dff9" x="766.596278" y="90.089867" style="fill: #2f5d7e; stroke: #ffffff; stroke-width: 0.8"/>
     <use xlink:href="#m528372dff9" x="800.939233" y="121.827092" style="fill: #2f5d7e; stroke: #ffffff; stroke-width: 0.8"/>
     <use xlink:href="#m528372dff9" x="835.282187" y="246.6132" style="fill: #2f5d7e; stroke: #ffffff; stroke-width: 0.8"/>
    </g>
   </g>
   <g id="PathCollection_6">
    <g clip-path="url(#p64b70f1df4)">
     <use xlink:href="#m488b777cb7" x="457.509687" y="246.6132" style="fill: #d97941; stroke: #ffffff; stroke-width: 0.8"/>
     <use xlink:href="#m488b777cb7" x="491.852642" y="237.518469" style="fill: #d97941; stroke: #ffffff; stroke-width: 0.8"/>
     <use xlink:href="#m488b777cb7" x="526.195597" y="228.483965" style="fill: #d97941; stroke: #ffffff; stroke-width: 0.8"/>
     <use xlink:href="#m488b777cb7" x="560.538551" y="219.587467" style="fill: #d97941; stroke: #ffffff; stroke-width: 0.8"/>
     <use xlink:href="#m488b777cb7" x="594.881506" y="210.949151" style="fill: #d97941; stroke: #ffffff; stroke-width: 0.8"/>
     <use xlink:href="#m488b777cb7" x="629.22446" y="202.775007" style="fill: #d97941; stroke: #ffffff; stroke-width: 0.8"/>
     <use xlink:href="#m488b777cb7" x="663.567415" y="195.440759" style="fill: #d97941; stroke: #ffffff; stroke-width: 0.8"/>
     <use xlink:href="#m488b777cb7" x="697.910369" y="189.663136" style="fill: #d97941; stroke: #ffffff; stroke-width: 0.8"/>
     <use xlink:href="#m488b777cb7" x="732.253324" y="186.863665" style="fill: #d97941; stroke: #ffffff; stroke-width: 0.8"/>
     <use xlink:href="#m488b777cb7" x="766.596278" y="189.96983" style="fill: #d97941; stroke: #ffffff; stroke-width: 0.8"/>
     <use xlink:href="#m488b777cb7" x="800.939233" y="205.24387" style="fill: #d97941; stroke: #ffffff; stroke-width: 0.8"/>
     <use xlink:href="#m488b777cb7" x="835.282187" y="246.6132" style="fill: #d97941; stroke: #ffffff; stroke-width: 0.8"/>
    </g>
   </g>
  </g>
  <g id="text_26">
   <!-- Input Sampling Diversity -->
   <g transform="translate(312.799688 19.3575) scale(0.16 -0.16)">
    <defs>
     <path id="DejaVuSans-Bold-49" d="M 588 4666 
L 1791 4666 
L 1791 0 
L 588 0 
L 588 4666 
z
" transform="scale(0.015625)"/>
     <path id="DejaVuSans-Bold-70" d="M 1656 506 
L 1656 -1331 
L 538 -1331 
L 538 3500 
L 1656 3500 
L 1656 2988 
Q 1888 3294 2169 3439 
Q 2450 3584 2816 3584 
Q 3463 3584 3878 3070 
Q 4294 2556 4294 1747 
Q 4294 938 3878 423 
Q 3463 -91 2816 -91 
Q 2450 -91 2169 54 
Q 1888 200 1656 506 
z
M 2400 2772 
Q 2041 2772 1848 2508 
Q 1656 2244 1656 1747 
Q 1656 1250 1848 986 
Q 2041 722 2400 722 
Q 2759 722 2948 984 
Q 3138 1247 3138 1747 
Q 3138 2247 2948 2509 
Q 2759 2772 2400 2772 
z
" transform="scale(0.015625)"/>
     <path id="DejaVuSans-Bold-74" d="M 1759 4494 
L 1759 3500 
L 2913 3500 
L 2913 2700 
L 1759 2700 
L 1759 1216 
Q 1759 972 1856 886 
Q 1953 800 2241 800 
L 2816 800 
L 2816 0 
L 1856 0 
Q 1194 0 917 276 
Q 641 553 641 1216 
L 641 2700 
L 84 2700 
L 84 3500 
L 641 3500 
L 641 4494 
L 1759 4494 
z
" transform="scale(0.015625)"/>
     <path id="DejaVuSans-Bold-53" d="M 3834 4519 
L 3834 3531 
Q 3450 3703 3084 3790 
Q 2719 3878 2394 3878 
Q 1963 3878 1756 3759 
Q 1550 3641 1550 3391 
Q 1550 3203 1689 3098 
Q 1828 2994 2194 2919 
L 2706 2816 
Q 3484 2659 3812 2340 
Q 4141 2022 4141 1434 
Q 4141 663 3683 286 
Q 3225 -91 2284 -91 
Q 1841 -91 1394 -6 
Q 947 78 500 244 
L 500 1259 
Q 947 1022 1364 901 
Q 1781 781 2169 781 
Q 2563 781 2772 912 
Q 2981 1044 2981 1288 
Q 2981 1506 2839 1625 
Q 2697 1744 2272 1838 
L 1806 1941 
Q 1106 2091 782 2419 
Q 459 2747 459 3303 
Q 459 4000 909 4375 
Q 1359 4750 2203 4750 
Q 2588 4750 2994 4692 
Q 3400 4634 3834 4519 
z
" transform="scale(0.015625)"/>
     <path id="DejaVuSans-Bold-44" d="M 1791 3756 
L 1791 909 
L 2222 909 
Q 2959 909 3348 1275 
Q 3738 1641 3738 2338 
Q 3738 3031 3350 3393 
Q 2963 3756 2222 3756 
L 1791 3756 
z
M 588 4666 
L 1856 4666 
Q 2919 4666 3439 4514 
Q 3959 4363 4331 4000 
Q 4659 3684 4818 3271 
Q 4978 2859 4978 2338 
Q 4978 1809 4818 1395 
Q 4659 981 4331 666 
Q 3956 303 3431 151 
Q 2906 0 1856 0 
L 588 0 
L 588 4666 
z
" transform="scale(0.015625)"/>
     <path id="DejaVuSans-Bold-76" d="M 97 3500 
L 1216 3500 
L 2088 1081 
L 2956 3500 
L 4078 3500 
L 2700 0 
L 1472 0 
L 97 3500 
z
" transform="scale(0.015625)"/>
     <path id="DejaVuSans-Bold-79" d="M 78 3500 
L 1197 3500 
L 2138 1125 
L 2938 3500 
L 4056 3500 
L 2584 -331 
Q 2363 -916 2067 -1148 
Q 1772 -1381 1288 -1381 
L 641 -1381 
L 641 -647 
L 991 -647 
Q 1275 -647 1404 -556 
Q 1534 -466 1606 -231 
L 1638 -134 
L 78 3500 
z
" transform="scale(0.015625)"/>
    </defs>
    <use xlink:href="#DejaVuSans-Bold-49"/>
    <use xlink:href="#DejaVuSans-Bold-6e" transform="translate(37.207031 0)"/>
    <use xlink:href="#DejaVuSans-Bold-70" transform="translate(108.398438 0)"/>
    <use xlink:href="#DejaVuSans-Bold-75" transform="translate(179.980469 0)"/>
    <use xlink:href="#DejaVuSans-Bold-74" transform="translate(251.171875 0)"/>
    <use xlink:href="#DejaVuSans-Bold-20" transform="translate(298.974609 0)"/>
    <use xlink:href="#DejaVuSans-Bold-53" transform="translate(333.789062 0)"/>
    <use xlink:href="#DejaVuSans-Bold-61" transform="translate(405.810547 0)"/>
    <use xlink:href="#DejaVuSans-Bold-6d" transform="translate(473.291016 0)"/>
    <use xlink:href="#DejaVuSans-Bold-70" transform="translate(577.490234 0)"/>
    <use xlink:href="#DejaVuSans-Bold-6c" transform="translate(649.072266 0)"/>
    <use xlink:href="#DejaVuSans-Bold-69" transform="translate(683.349609 0)"/>
    <use xlink:href="#DejaVuSans-Bold-6e" transform="translate(717.626953 0)"/>
    <use xlink:href="#DejaVuSans-Bold-67" transform="translate(788.818359 0)"/>
    <use xlink:href="#DejaVuSans-Bold-20" transform="translate(860.400391 0)"/>
    <use xlink:href="#DejaVuSans-Bold-44" transform="translate(895.214844 0)"/>
    <use xlink:href="#DejaVuSans-Bold-69" transform="translate(978.222656 0)"/>
    <use xlink:href="#DejaVuSans-Bold-76" transform="translate(1012.5 0)"/>
    <use xlink:href="#DejaVuSans-Bold-65" transform="translate(1077.685547 0)"/>
    <use xlink:href="#DejaVuSans-Bold-72" transform="translate(1145.507812 0)"/>
    <use xlink:href="#DejaVuSans-Bold-73" transform="translate(1194.824219 0)"/>
    <use xlink:href="#DejaVuSans-Bold-69" transform="translate(1254.345703 0)"/>
    <use xlink:href="#DejaVuSans-Bold-74" transform="translate(1288.623047 0)"/>
    <use xlink:href="#DejaVuSans-Bold-79" transform="translate(1336.425781 0)"/>
   </g>
  </g>
  <g id="text_27">
   <!-- Green dots mark the actual source-node placement used for interpolation or direct sampling. -->
   <g transform="translate(144.668125 325.152) scale(0.12 -0.12)">
    <defs>
     <path id="DejaVuSans-47" d="M 3809 666 
L 3809 1919 
L 2778 1919 
L 2778 2438 
L 4434 2438 
L 4434 434 
Q 4069 175 3628 42 
Q 3188 -91 2688 -91 
Q 1594 -91 976 548 
Q 359 1188 359 2328 
Q 359 3472 976 4111 
Q 1594 4750 2688 4750 
Q 3144 4750 3555 4637 
Q 3966 4525 4313 4306 
L 4313 3634 
Q 3963 3931 3569 4081 
Q 3175 4231 2741 4231 
Q 1884 4231 1454 3753 
Q 1025 3275 1025 2328 
Q 1025 1384 1454 906 
Q 1884 428 2741 428 
Q 3075 428 3337 486 
Q 3600 544 3809 666 
z
" transform="scale(0.015625)"/>
     <path id="DejaVuSans-6b" d="M 581 4863 
L 1159 4863 
L 1159 1991 
L 2875 3500 
L 3609 3500 
L 1753 1863 
L 3688 0 
L 2938 0 
L 1159 1709 
L 1159 0 
L 581 0 
L 581 4863 
z
" transform="scale(0.015625)"/>
     <path id="DejaVuSans-2d" d="M 313 2009 
L 1997 2009 
L 1997 1497 
L 313 1497 
L 313 2009 
z
" transform="scale(0.015625)"/>
     <path id="DejaVuSans-66" d="M 2375 4863 
L 2375 4384 
L 1825 4384 
Q 1516 4384 1395 4259 
Q 1275 4134 1275 3809 
L 1275 3500 
L 2222 3500 
L 2222 3053 
L 1275 3053 
L 1275 0 
L 697 0 
L 697 3053 
L 147 3053 
L 147 3500 
L 697 3500 
L 697 3744 
Q 697 4328 969 4595 
Q 1241 4863 1831 4863 
L 2375 4863 
z
" transform="scale(0.015625)"/>
    </defs>
    <use xlink:href="#DejaVuSans-47"/>
    <use xlink:href="#DejaVuSans-72" transform="translate(77.490234 0)"/>
    <use xlink:href="#DejaVuSans-65" transform="translate(116.353516 0)"/>
    <use xlink:href="#DejaVuSans-65" transform="translate(177.876953 0)"/>
    <use xlink:href="#DejaVuSans-6e" transform="translate(239.400391 0)"/>
    <use xlink:href="#DejaVuSans-20" transform="translate(302.779297 0)"/>
    <use xlink:href="#DejaVuSans-64" transform="translate(334.566406 0)"/>
    <use xlink:href="#DejaVuSans-6f" transform="translate(398.042969 0)"/>
    <use xlink:href="#DejaVuSans-74" transform="translate(459.224609 0)"/>
    <use xlink:href="#DejaVuSans-73" transform="translate(498.433594 0)"/>
    <use xlink:href="#DejaVuSans-20" transform="translate(550.533203 0)"/>
    <use xlink:href="#DejaVuSans-6d" transform="translate(582.320312 0)"/>
    <use xlink:href="#DejaVuSans-61" transform="translate(679.732422 0)"/>
    <use xlink:href="#DejaVuSans-72" transform="translate(741.011719 0)"/>
    <use xlink:href="#DejaVuSans-6b" transform="translate(782.125 0)"/>
    <use xlink:href="#DejaVuSans-20" transform="translate(840.035156 0)"/>
    <use xlink:href="#DejaVuSans-74" transform="translate(871.822266 0)"/>
    <use xlink:href="#DejaVuSans-68" transform="translate(911.03125 0)"/>
    <use xlink:href="#DejaVuSans-65" transform="translate(974.410156 0)"/>
    <use xlink:href="#DejaVuSans-20" transform="translate(1035.933594 0)"/>
    <use xlink:href="#DejaVuSans-61" transform="translate(1067.720703 0)"/>
    <use xlink:href="#DejaVuSans-63" transform="translate(1129 0)"/>
    <use xlink:href="#DejaVuSans-74" transform="translate(1183.980469 0)"/>
    <use xlink:href="#DejaVuSans-75" transform="translate(1223.189453 0)"/>
    <use xlink:href="#DejaVuSans-61" transform="translate(1286.568359 0)"/>
    <use xlink:href="#DejaVuSans-6c" transform="translate(1347.847656 0)"/>
    <use xlink:href="#DejaVuSans-20" transform="translate(1375.630859 0)"/>
    <use xlink:href="#DejaVuSans-73" transform="translate(1407.417969 0)"/>
    <use xlink:href="#DejaVuSans-6f" transform="translate(1459.517578 0)"/>
    <use xlink:href="#DejaVuSans-75" transform="translate(1520.699219 0)"/>
    <use xlink:href="#DejaVuSans-72" transform="translate(1584.078125 0)"/>
    <use xlink:href="#DejaVuSans-63" transform="translate(1622.941406 0)"/>
    <use xlink:href="#DejaVuSans-65" transform="translate(1677.921875 0)"/>
    <use xlink:href="#DejaVuSans-2d" transform="translate(1739.445312 0)"/>
    <use xlink:href="#DejaVuSans-6e" transform="translate(1775.529297 0)"/>
    <use xlink:href="#DejaVuSans-6f" transform="translate(1838.908203 0)"/>
    <use xlink:href="#DejaVuSans-64" transform="translate(1900.089844 0)"/>
    <use xlink:href="#DejaVuSans-65" transform="translate(1963.566406 0)"/>
    <use xlink:href="#DejaVuSans-20" transform="translate(2025.089844 0)"/>
    <use xlink:href="#DejaVuSans-70" transform="translate(2056.876953 0)"/>
    <use xlink:href="#DejaVuSans-6c" transform="translate(2120.353516 0)"/>
    <use xlink:href="#DejaVuSans-61" transform="translate(2148.136719 0)"/>
    <use xlink:href="#DejaVuSans-63" transform="translate(2209.416016 0)"/>
    <use xlink:href="#DejaVuSans-65" transform="translate(2264.396484 0)"/>
    <use xlink:href="#DejaVuSans-6d" transform="translate(2325.919922 0)"/>
    <use xlink:href="#DejaVuSans-65" transform="translate(2423.332031 0)"/>
    <use xlink:href="#DejaVuSans-6e" transform="translate(2484.855469 0)"/>
    <use xlink:href="#DejaVuSans-74" transform="translate(2548.234375 0)"/>
    <use xlink:href="#DejaVuSans-20" transform="translate(2587.443359 0)"/>
    <use xlink:href="#DejaVuSans-75" transform="translate(2619.230469 0)"/>
    <use xlink:href="#DejaVuSans-73" transform="translate(2682.609375 0)"/>
    <use xlink:href="#DejaVuSans-65" transform="translate(2734.708984 0)"/>
    <use xlink:href="#DejaVuSans-64" transform="translate(2796.232422 0)"/>
    <use xlink:href="#DejaVuSans-20" transform="translate(2859.708984 0)"/>
    <use xlink:href="#DejaVuSans-66" transform="translate(2891.496094 0)"/>
    <use xlink:href="#DejaVuSans-6f" transform="translate(2926.701172 0)"/>
    <use xlink:href="#DejaVuSans-72" transform="translate(2987.882812 0)"/>
    <use xlink:href="#DejaVuSans-20" transform="translate(3028.996094 0)"/>
    <use xlink:href="#DejaVuSans-69" transform="translate(3060.783203 0)"/>
    <use xlink:href="#DejaVuSans-6e" transform="translate(3088.566406 0)"/>
    <use xlink:href="#DejaVuSans-74" transform="translate(3151.945312 0)"/>
    <use xlink:href="#DejaVuSans-65" transform="translate(3191.154297 0)"/>
    <use xlink:href="#DejaVuSans-72" transform="translate(3252.677734 0)"/>
    <use xlink:href="#DejaVuSans-70" transform="translate(3293.791016 0)"/>
    <use xlink:href="#DejaVuSans-6f" transform="translate(3357.267578 0)"/>
    <use xlink:href="#DejaVuSans-6c" transform="translate(3418.449219 0)"/>
    <use xlink:href="#DejaVuSans-61" transform="translate(3446.232422 0)"/>
    <use xlink:href="#DejaVuSans-74" transform="translate(3507.511719 0)"/>
    <use xlink:href="#DejaVuSans-69" transform="translate(3546.720703 0)"/>
    <use xlink:href="#DejaVuSans-6f" transform="translate(3574.503906 0)"/>
    <use xlink:href="#DejaVuSans-6e" transform="translate(3635.685547 0)"/>
    <use xlink:href="#DejaVuSans-20" transform="translate(3699.064453 0)"/>
    <use xlink:href="#DejaVuSans-6f" transform="translate(3730.851562 0)"/>
    <use xlink:href="#DejaVuSans-72" transform="translate(3792.033203 0)"/>
    <use xlink:href="#DejaVuSans-20" transform="translate(3833.146484 0)"/>
    <use xlink:href="#DejaVuSans-64" transform="translate(3864.933594 0)"/>
    <use xlink:href="#DejaVuSans-69" transform="translate(3928.410156 0)"/>
    <use xlink:href="#DejaVuSans-72" transform="translate(3956.193359 0)"/>
    <use xlink:href="#DejaVuSans-65" transform="translate(3995.056641 0)"/>
    <use xlink:href="#DejaVuSans-63" transform="translate(4056.580078 0)"/>
    <use xlink:href="#DejaVuSans-74" transform="translate(4111.560547 0)"/>
    <use xlink:href="#DejaVuSans-20" transform="translate(4150.769531 0)"/>
    <use xlink:href="#DejaVuSans-73" transform="translate(4182.556641 0)"/>
    <use xlink:href="#DejaVuSans-61" transform="translate(4234.65625 0)"/>
    <use xlink:href="#DejaVuSans-6d" transform="translate(4295.935547 0)"/>
    <use xlink:href="#DejaVuSans-70" transform="translate(4393.347656 0)"/>
    <use xlink:href="#DejaVuSans-6c" transform="translate(4456.824219 0)"/>
    <use xlink:href="#DejaVuSans-69" transform="translate(4484.607422 0)"/>
    <use xlink:href="#DejaVuSans-6e" transform="translate(4512.390625 0)"/>
    <use xlink:href="#DejaVuSans-67" transform="translate(4575.769531 0)"/>
    <use xlink:href="#DejaVuSans-2e" transform="translate(4639.246094 0)"/>
   </g>
  </g>
 </g>
 <defs>
  <clipPath id="p19174bc501">
   <rect x="49.407188" y="77.568" width="377.7725" height="187.828"/>
  </clipPath>
  <clipPath id="p64b70f1df4">
   <rect x="457.509687" y="77.568" width="377.7725" height="187.828"/>
  </clipPath>
 </defs>
</svg>
